<?xml version="1.0" encoding="utf-8" standalone="no"?>
<!DOCTYPE svg PUBLIC "-//W3C//DTD SVG 1.1//EN"
  "http://www.w3.org/Graphics/SVG/1.1/DTD/svg11.dtd">
<svg xmlns:xlink="http://www.w3.org/1999/xlink" width="1000.718125pt" height="624.87625pt" viewBox="0 0 1000.718125 624.87625" xmlns="http://www.w3.org/2000/svg" version="1.1">
 <metadata>
  <rdf:RDF xmlns:dc="http://purl.org/dc/elements/1.1/" xmlns:cc="http://creativecommons.org/ns#" xmlns:rdf="http://www.w3.org/1999/02/22-rdf-syntax-ns#">
   <cc:Work>
    <dc:type rdf:resource="http://purl.org/dc/dcmitype/StillImage"/>
    <dc:date>2026-03-31T21:34:01.456423</dc:date>
    <dc:format>image/svg+xml</dc:format>
    <dc:creator>
     <cc:Agent>
      <dc:title>Matplotlib v3.8.0, https://matplotlib.org/</dc:title>
     </cc:Agent>
    </dc:creator>
   </cc:Work>
  </rdf:RDF>
 </metadata>
 <defs>
  <style type="text/css">*{stroke-linejoin: round; stroke-linecap: butt}</style>
 </defs>
 <g id="figure_1">
  <g id="patch_1">
   <path d="M 0 624.87625 
L 1000.718125 624.87625 
L 1000.718125 0 
L 0 0 
z
" style="fill: #ffffff"/>
  </g>
  <g id="axes_1">
   <g id="patch_2">
    <path d="M 42.828125 300.76 
L 501.308125 300.76 
L 501.308125 70.8 
L 42.828125 70.8 
z
" style="fill: #ffffff"/>
   </g>
   <g id="matplotlib.axis_1">
    <g id="xtick_1">
     <g id="line2d_1">
      <path d="M 42.828125 300.76 
L 42.828125 70.8 
" clip-path="url(#p321bf5aa5f)" style="fill: none; stroke: #b0b0b0; stroke-opacity: 0.25; stroke-width: 0.8; stroke-linecap: square"/>
     </g>
     <g id="line2d_2">
      <defs>
       <path id="ma6e5ced265" d="M 0 0 
L 0 3.5 
" style="stroke: #000000; stroke-width: 0.8"/>
      </defs>
      <g>
       <use xlink:href="#ma6e5ced265" x="42.828125" y="300.76" style="stroke: #000000; stroke-width: 0.8"/>
      </g>
     </g>
     <g id="text_1">
      <!-- 0 -->
      <g transform="translate(39.646875 315.358437) scale(0.1 -0.1)">
       <defs>
        <path id="DejaVuSans-30" d="M 2034 4250 
Q 1547 4250 1301 3770 
Q 1056 3291 1056 2328 
Q 1056 1369 1301 889 
Q 1547 409 2034 409 
Q 2525 409 2770 889 
Q 3016 1369 3016 2328 
Q 3016 3291 2770 3770 
Q 2525 4250 2034 4250 
z
M 2034 4750 
Q 2819 4750 3233 4129 
Q 3647 3509 3647 2328 
Q 3647 1150 3233 529 
Q 2819 -91 2034 -91 
Q 1250 -91 836 529 
Q 422 1150 422 2328 
Q 422 3509 836 4129 
Q 1250 4750 2034 4750 
z
" transform="scale(0.015625)"/>
       </defs>
       <use xlink:href="#DejaVuSans-30"/>
      </g>
     </g>
    </g>
    <g id="xtick_2">
     <g id="line2d_3">
      <path d="M 97.735909 300.76 
L 97.735909 70.8 
" clip-path="url(#p321bf5aa5f)" style="fill: none; stroke: #b0b0b0; stroke-opacity: 0.25; stroke-width: 0.8; stroke-linecap: square"/>
     </g>
     <g id="line2d_4">
      <g>
       <use xlink:href="#ma6e5ced265" x="97.735909" y="300.76" style="stroke: #000000; stroke-width: 0.8"/>
      </g>
     </g>
     <g id="text_2">
      <!-- 20 -->
      <g transform="translate(91.373409 315.358437) scale(0.1 -0.1)">
       <defs>
        <path id="DejaVuSans-32" d="M 1228 531 
L 3431 531 
L 3431 0 
L 469 0 
L 469 531 
Q 828 903 1448 1529 
Q 2069 2156 2228 2338 
Q 2531 2678 2651 2914 
Q 2772 3150 2772 3378 
Q 2772 3750 2511 3984 
Q 2250 4219 1831 4219 
Q 1534 4219 1204 4116 
Q 875 4013 500 3803 
L 500 4441 
Q 881 4594 1212 4672 
Q 1544 4750 1819 4750 
Q 2544 4750 2975 4387 
Q 3406 4025 3406 3419 
Q 3406 3131 3298 2873 
Q 3191 2616 2906 2266 
Q 2828 2175 2409 1742 
Q 1991 1309 1228 531 
z
" transform="scale(0.015625)"/>
       </defs>
       <use xlink:href="#DejaVuSans-32"/>
       <use xlink:href="#DejaVuSans-30" x="63.623047"/>
      </g>
     </g>
    </g>
    <g id="xtick_3">
     <g id="line2d_5">
      <path d="M 152.643694 300.76 
L 152.643694 70.8 
" clip-path="url(#p321bf5aa5f)" style="fill: none; stroke: #b0b0b0; stroke-opacity: 0.25; stroke-width: 0.8; stroke-linecap: square"/>
     </g>
     <g id="line2d_6">
      <g>
       <use xlink:href="#ma6e5ced265" x="152.643694" y="300.76" style="stroke: #000000; stroke-width: 0.8"/>
      </g>
     </g>
     <g id="text_3">
      <!-- 40 -->
      <g transform="translate(146.281194 315.358437) scale(0.1 -0.1)">
       <defs>
        <path id="DejaVuSans-34" d="M 2419 4116 
L 825 1625 
L 2419 1625 
L 2419 4116 
z
M 2253 4666 
L 3047 4666 
L 3047 1625 
L 3713 1625 
L 3713 1100 
L 3047 1100 
L 3047 0 
L 2419 0 
L 2419 1100 
L 313 1100 
L 313 1709 
L 2253 4666 
z
" transform="scale(0.015625)"/>
       </defs>
       <use xlink:href="#DejaVuSans-34"/>
       <use xlink:href="#DejaVuSans-30" x="63.623047"/>
      </g>
     </g>
    </g>
    <g id="xtick_4">
     <g id="line2d_7">
      <path d="M 207.551478 300.76 
L 207.551478 70.8 
" clip-path="url(#p321bf5aa5f)" style="fill: none; stroke: #b0b0b0; stroke-opacity: 0.25; stroke-width: 0.8; stroke-linecap: square"/>
     </g>
     <g id="line2d_8">
      <g>
       <use xlink:href="#ma6e5ced265" x="207.551478" y="300.76" style="stroke: #000000; stroke-width: 0.8"/>
      </g>
     </g>
     <g id="text_4">
      <!-- 60 -->
      <g transform="translate(201.188978 315.358437) scale(0.1 -0.1)">
       <defs>
        <path id="DejaVuSans-36" d="M 2113 2584 
Q 1688 2584 1439 2293 
Q 1191 2003 1191 1497 
Q 1191 994 1439 701 
Q 1688 409 2113 409 
Q 2538 409 2786 701 
Q 3034 994 3034 1497 
Q 3034 2003 2786 2293 
Q 2538 2584 2113 2584 
z
M 3366 4563 
L 3366 3988 
Q 3128 4100 2886 4159 
Q 2644 4219 2406 4219 
Q 1781 4219 1451 3797 
Q 1122 3375 1075 2522 
Q 1259 2794 1537 2939 
Q 1816 3084 2150 3084 
Q 2853 3084 3261 2657 
Q 3669 2231 3669 1497 
Q 3669 778 3244 343 
Q 2819 -91 2113 -91 
Q 1303 -91 875 529 
Q 447 1150 447 2328 
Q 447 3434 972 4092 
Q 1497 4750 2381 4750 
Q 2619 4750 2861 4703 
Q 3103 4656 3366 4563 
z
" transform="scale(0.015625)"/>
       </defs>
       <use xlink:href="#DejaVuSans-36"/>
       <use xlink:href="#DejaVuSans-30" x="63.623047"/>
      </g>
     </g>
    </g>
    <g id="xtick_5">
     <g id="line2d_9">
      <path d="M 262.459263 300.76 
L 262.459263 70.8 
" clip-path="url(#p321bf5aa5f)" style="fill: none; stroke: #b0b0b0; stroke-opacity: 0.25; stroke-width: 0.8; stroke-linecap: square"/>
     </g>
     <g id="line2d_10">
      <g>
       <use xlink:href="#ma6e5ced265" x="262.459263" y="300.76" style="stroke: #000000; stroke-width: 0.8"/>
      </g>
     </g>
     <g id="text_5">
      <!-- 80 -->
      <g transform="translate(256.096763 315.358437) scale(0.1 -0.1)">
       <defs>
        <path id="DejaVuSans-38" d="M 2034 2216 
Q 1584 2216 1326 1975 
Q 1069 1734 1069 1313 
Q 1069 891 1326 650 
Q 1584 409 2034 409 
Q 2484 409 2743 651 
Q 3003 894 3003 1313 
Q 3003 1734 2745 1975 
Q 2488 2216 2034 2216 
z
M 1403 2484 
Q 997 2584 770 2862 
Q 544 3141 544 3541 
Q 544 4100 942 4425 
Q 1341 4750 2034 4750 
Q 2731 4750 3128 4425 
Q 3525 4100 3525 3541 
Q 3525 3141 3298 2862 
Q 3072 2584 2669 2484 
Q 3125 2378 3379 2068 
Q 3634 1759 3634 1313 
Q 3634 634 3220 271 
Q 2806 -91 2034 -91 
Q 1263 -91 848 271 
Q 434 634 434 1313 
Q 434 1759 690 2068 
Q 947 2378 1403 2484 
z
M 1172 3481 
Q 1172 3119 1398 2916 
Q 1625 2713 2034 2713 
Q 2441 2713 2670 2916 
Q 2900 3119 2900 3481 
Q 2900 3844 2670 4047 
Q 2441 4250 2034 4250 
Q 1625 4250 1398 4047 
Q 1172 3844 1172 3481 
z
" transform="scale(0.015625)"/>
       </defs>
       <use xlink:href="#DejaVuSans-38"/>
       <use xlink:href="#DejaVuSans-30" x="63.623047"/>
      </g>
     </g>
    </g>
    <g id="xtick_6">
     <g id="line2d_11">
      <path d="M 317.367047 300.76 
L 317.367047 70.8 
" clip-path="url(#p321bf5aa5f)" style="fill: none; stroke: #b0b0b0; stroke-opacity: 0.25; stroke-width: 0.8; stroke-linecap: square"/>
     </g>
     <g id="line2d_12">
      <g>
       <use xlink:href="#ma6e5ced265" x="317.367047" y="300.76" style="stroke: #000000; stroke-width: 0.8"/>
      </g>
     </g>
     <g id="text_6">
      <!-- 100 -->
      <g transform="translate(307.823297 315.358437) scale(0.1 -0.1)">
       <defs>
        <path id="DejaVuSans-31" d="M 794 531 
L 1825 531 
L 1825 4091 
L 703 3866 
L 703 4441 
L 1819 4666 
L 2450 4666 
L 2450 531 
L 3481 531 
L 3481 0 
L 794 0 
L 794 531 
z
" transform="scale(0.015625)"/>
       </defs>
       <use xlink:href="#DejaVuSans-31"/>
       <use xlink:href="#DejaVuSans-30" x="63.623047"/>
       <use xlink:href="#DejaVuSans-30" x="127.246094"/>
      </g>
     </g>
    </g>
    <g id="xtick_7">
     <g id="line2d_13">
      <path d="M 372.274832 300.76 
L 372.274832 70.8 
" clip-path="url(#p321bf5aa5f)" style="fill: none; stroke: #b0b0b0; stroke-opacity: 0.25; stroke-width: 0.8; stroke-linecap: square"/>
     </g>
     <g id="line2d_14">
      <g>
       <use xlink:href="#ma6e5ced265" x="372.274832" y="300.76" style="stroke: #000000; stroke-width: 0.8"/>
      </g>
     </g>
     <g id="text_7">
      <!-- 120 -->
      <g transform="translate(362.731082 315.358437) scale(0.1 -0.1)">
       <use xlink:href="#DejaVuSans-31"/>
       <use xlink:href="#DejaVuSans-32" x="63.623047"/>
       <use xlink:href="#DejaVuSans-30" x="127.246094"/>
      </g>
     </g>
    </g>
    <g id="xtick_8">
     <g id="line2d_15">
      <path d="M 427.182616 300.76 
L 427.182616 70.8 
" clip-path="url(#p321bf5aa5f)" style="fill: none; stroke: #b0b0b0; stroke-opacity: 0.25; stroke-width: 0.8; stroke-linecap: square"/>
     </g>
     <g id="line2d_16">
      <g>
       <use xlink:href="#ma6e5ced265" x="427.182616" y="300.76" style="stroke: #000000; stroke-width: 0.8"/>
      </g>
     </g>
     <g id="text_8">
      <!-- 140 -->
      <g transform="translate(417.638866 315.358437) scale(0.1 -0.1)">
       <use xlink:href="#DejaVuSans-31"/>
       <use xlink:href="#DejaVuSans-34" x="63.623047"/>
       <use xlink:href="#DejaVuSans-30" x="127.246094"/>
      </g>
     </g>
    </g>
    <g id="xtick_9">
     <g id="line2d_17">
      <path d="M 482.0904 300.76 
L 482.0904 70.8 
" clip-path="url(#p321bf5aa5f)" style="fill: none; stroke: #b0b0b0; stroke-opacity: 0.25; stroke-width: 0.8; stroke-linecap: square"/>
     </g>
     <g id="line2d_18">
      <g>
       <use xlink:href="#ma6e5ced265" x="482.0904" y="300.76" style="stroke: #000000; stroke-width: 0.8"/>
      </g>
     </g>
     <g id="text_9">
      <!-- 160 -->
      <g transform="translate(472.54665 315.358437) scale(0.1 -0.1)">
       <use xlink:href="#DejaVuSans-31"/>
       <use xlink:href="#DejaVuSans-36" x="63.623047"/>
       <use xlink:href="#DejaVuSans-30" x="127.246094"/>
      </g>
     </g>
    </g>
    <g id="text_10">
     <!-- Time step -->
     <g transform="translate(247.429844 329.036562) scale(0.1 -0.1)">
      <defs>
       <path id="DejaVuSans-54" d="M -19 4666 
L 3928 4666 
L 3928 4134 
L 2272 4134 
L 2272 0 
L 1638 0 
L 1638 4134 
L -19 4134 
L -19 4666 
z
" transform="scale(0.015625)"/>
       <path id="DejaVuSans-69" d="M 603 3500 
L 1178 3500 
L 1178 0 
L 603 0 
L 603 3500 
z
M 603 4863 
L 1178 4863 
L 1178 4134 
L 603 4134 
L 603 4863 
z
" transform="scale(0.015625)"/>
       <path id="DejaVuSans-6d" d="M 3328 2828 
Q 3544 3216 3844 3400 
Q 4144 3584 4550 3584 
Q 5097 3584 5394 3201 
Q 5691 2819 5691 2113 
L 5691 0 
L 5113 0 
L 5113 2094 
Q 5113 2597 4934 2840 
Q 4756 3084 4391 3084 
Q 3944 3084 3684 2787 
Q 3425 2491 3425 1978 
L 3425 0 
L 2847 0 
L 2847 2094 
Q 2847 2600 2669 2842 
Q 2491 3084 2119 3084 
Q 1678 3084 1418 2786 
Q 1159 2488 1159 1978 
L 1159 0 
L 581 0 
L 581 3500 
L 1159 3500 
L 1159 2956 
Q 1356 3278 1631 3431 
Q 1906 3584 2284 3584 
Q 2666 3584 2933 3390 
Q 3200 3197 3328 2828 
z
" transform="scale(0.015625)"/>
       <path id="DejaVuSans-65" d="M 3597 1894 
L 3597 1613 
L 953 1613 
Q 991 1019 1311 708 
Q 1631 397 2203 397 
Q 2534 397 2845 478 
Q 3156 559 3463 722 
L 3463 178 
Q 3153 47 2828 -22 
Q 2503 -91 2169 -91 
Q 1331 -91 842 396 
Q 353 884 353 1716 
Q 353 2575 817 3079 
Q 1281 3584 2069 3584 
Q 2775 3584 3186 3129 
Q 3597 2675 3597 1894 
z
M 3022 2063 
Q 3016 2534 2758 2815 
Q 2500 3097 2075 3097 
Q 1594 3097 1305 2825 
Q 1016 2553 972 2059 
L 3022 2063 
z
" transform="scale(0.015625)"/>
       <path id="DejaVuSans-20" transform="scale(0.015625)"/>
       <path id="DejaVuSans-73" d="M 2834 3397 
L 2834 2853 
Q 2591 2978 2328 3040 
Q 2066 3103 1784 3103 
Q 1356 3103 1142 2972 
Q 928 2841 928 2578 
Q 928 2378 1081 2264 
Q 1234 2150 1697 2047 
L 1894 2003 
Q 2506 1872 2764 1633 
Q 3022 1394 3022 966 
Q 3022 478 2636 193 
Q 2250 -91 1575 -91 
Q 1294 -91 989 -36 
Q 684 19 347 128 
L 347 722 
Q 666 556 975 473 
Q 1284 391 1588 391 
Q 1994 391 2212 530 
Q 2431 669 2431 922 
Q 2431 1156 2273 1281 
Q 2116 1406 1581 1522 
L 1381 1569 
Q 847 1681 609 1914 
Q 372 2147 372 2553 
Q 372 3047 722 3315 
Q 1072 3584 1716 3584 
Q 2034 3584 2315 3537 
Q 2597 3491 2834 3397 
z
" transform="scale(0.015625)"/>
       <path id="DejaVuSans-74" d="M 1172 4494 
L 1172 3500 
L 2356 3500 
L 2356 3053 
L 1172 3053 
L 1172 1153 
Q 1172 725 1289 603 
Q 1406 481 1766 481 
L 2356 481 
L 2356 0 
L 1766 0 
Q 1100 0 847 248 
Q 594 497 594 1153 
L 594 3053 
L 172 3053 
L 172 3500 
L 594 3500 
L 594 4494 
L 1172 4494 
z
" transform="scale(0.015625)"/>
       <path id="DejaVuSans-70" d="M 1159 525 
L 1159 -1331 
L 581 -1331 
L 581 3500 
L 1159 3500 
L 1159 2969 
Q 1341 3281 1617 3432 
Q 1894 3584 2278 3584 
Q 2916 3584 3314 3078 
Q 3713 2572 3713 1747 
Q 3713 922 3314 415 
Q 2916 -91 2278 -91 
Q 1894 -91 1617 61 
Q 1341 213 1159 525 
z
M 3116 1747 
Q 3116 2381 2855 2742 
Q 2594 3103 2138 3103 
Q 1681 3103 1420 2742 
Q 1159 2381 1159 1747 
Q 1159 1113 1420 752 
Q 1681 391 2138 391 
Q 2594 391 2855 752 
Q 3116 1113 3116 1747 
z
" transform="scale(0.015625)"/>
      </defs>
      <use xlink:href="#DejaVuSans-54"/>
      <use xlink:href="#DejaVuSans-69" x="57.958984"/>
      <use xlink:href="#DejaVuSans-6d" x="85.742188"/>
      <use xlink:href="#DejaVuSans-65" x="183.154297"/>
      <use xlink:href="#DejaVuSans-20" x="244.677734"/>
      <use xlink:href="#DejaVuSans-73" x="276.464844"/>
      <use xlink:href="#DejaVuSans-74" x="328.564453"/>
      <use xlink:href="#DejaVuSans-65" x="367.773438"/>
      <use xlink:href="#DejaVuSans-70" x="429.296875"/>
     </g>
    </g>
   </g>
   <g id="matplotlib.axis_2">
    <g id="ytick_1">
     <g id="line2d_19">
      <path d="M 42.828125 282.785802 
L 501.308125 282.785802 
" clip-path="url(#p321bf5aa5f)" style="fill: none; stroke: #b0b0b0; stroke-opacity: 0.25; stroke-width: 0.8; stroke-linecap: square"/>
     </g>
     <g id="line2d_20">
      <defs>
       <path id="m65ea3abb11" d="M 0 0 
L -3.5 0 
" style="stroke: #000000; stroke-width: 0.8"/>
      </defs>
      <g>
       <use xlink:href="#m65ea3abb11" x="42.828125" y="282.785802" style="stroke: #000000; stroke-width: 0.8"/>
      </g>
     </g>
     <g id="text_11">
      <!-- 0.030 -->
      <g transform="translate(7.2 286.58502) scale(0.1 -0.1)">
       <defs>
        <path id="DejaVuSans-2e" d="M 684 794 
L 1344 794 
L 1344 0 
L 684 0 
L 684 794 
z
" transform="scale(0.015625)"/>
        <path id="DejaVuSans-33" d="M 2597 2516 
Q 3050 2419 3304 2112 
Q 3559 1806 3559 1356 
Q 3559 666 3084 287 
Q 2609 -91 1734 -91 
Q 1441 -91 1130 -33 
Q 819 25 488 141 
L 488 750 
Q 750 597 1062 519 
Q 1375 441 1716 441 
Q 2309 441 2620 675 
Q 2931 909 2931 1356 
Q 2931 1769 2642 2001 
Q 2353 2234 1838 2234 
L 1294 2234 
L 1294 2753 
L 1863 2753 
Q 2328 2753 2575 2939 
Q 2822 3125 2822 3475 
Q 2822 3834 2567 4026 
Q 2313 4219 1838 4219 
Q 1578 4219 1281 4162 
Q 984 4106 628 3988 
L 628 4550 
Q 988 4650 1302 4700 
Q 1616 4750 1894 4750 
Q 2613 4750 3031 4423 
Q 3450 4097 3450 3541 
Q 3450 3153 3228 2886 
Q 3006 2619 2597 2516 
z
" transform="scale(0.015625)"/>
       </defs>
       <use xlink:href="#DejaVuSans-30"/>
       <use xlink:href="#DejaVuSans-2e" x="63.623047"/>
       <use xlink:href="#DejaVuSans-30" x="95.410156"/>
       <use xlink:href="#DejaVuSans-33" x="159.033203"/>
       <use xlink:href="#DejaVuSans-30" x="222.65625"/>
      </g>
     </g>
    </g>
    <g id="ytick_2">
     <g id="line2d_21">
      <path d="M 42.828125 247.63877 
L 501.308125 247.63877 
" clip-path="url(#p321bf5aa5f)" style="fill: none; stroke: #b0b0b0; stroke-opacity: 0.25; stroke-width: 0.8; stroke-linecap: square"/>
     </g>
     <g id="line2d_22">
      <g>
       <use xlink:href="#m65ea3abb11" x="42.828125" y="247.63877" style="stroke: #000000; stroke-width: 0.8"/>
      </g>
     </g>
     <g id="text_12">
      <!-- 0.035 -->
      <g transform="translate(7.2 251.437989) scale(0.1 -0.1)">
       <defs>
        <path id="DejaVuSans-35" d="M 691 4666 
L 3169 4666 
L 3169 4134 
L 1269 4134 
L 1269 2991 
Q 1406 3038 1543 3061 
Q 1681 3084 1819 3084 
Q 2600 3084 3056 2656 
Q 3513 2228 3513 1497 
Q 3513 744 3044 326 
Q 2575 -91 1722 -91 
Q 1428 -91 1123 -41 
Q 819 9 494 109 
L 494 744 
Q 775 591 1075 516 
Q 1375 441 1709 441 
Q 2250 441 2565 725 
Q 2881 1009 2881 1497 
Q 2881 1984 2565 2268 
Q 2250 2553 1709 2553 
Q 1456 2553 1204 2497 
Q 953 2441 691 2322 
L 691 4666 
z
" transform="scale(0.015625)"/>
       </defs>
       <use xlink:href="#DejaVuSans-30"/>
       <use xlink:href="#DejaVuSans-2e" x="63.623047"/>
       <use xlink:href="#DejaVuSans-30" x="95.410156"/>
       <use xlink:href="#DejaVuSans-33" x="159.033203"/>
       <use xlink:href="#DejaVuSans-35" x="222.65625"/>
      </g>
     </g>
    </g>
    <g id="ytick_3">
     <g id="line2d_23">
      <path d="M 42.828125 212.491738 
L 501.308125 212.491738 
" clip-path="url(#p321bf5aa5f)" style="fill: none; stroke: #b0b0b0; stroke-opacity: 0.25; stroke-width: 0.8; stroke-linecap: square"/>
     </g>
     <g id="line2d_24">
      <g>
       <use xlink:href="#m65ea3abb11" x="42.828125" y="212.491738" style="stroke: #000000; stroke-width: 0.8"/>
      </g>
     </g>
     <g id="text_13">
      <!-- 0.040 -->
      <g transform="translate(7.2 216.290957) scale(0.1 -0.1)">
       <use xlink:href="#DejaVuSans-30"/>
       <use xlink:href="#DejaVuSans-2e" x="63.623047"/>
       <use xlink:href="#DejaVuSans-30" x="95.410156"/>
       <use xlink:href="#DejaVuSans-34" x="159.033203"/>
       <use xlink:href="#DejaVuSans-30" x="222.65625"/>
      </g>
     </g>
    </g>
    <g id="ytick_4">
     <g id="line2d_25">
      <path d="M 42.828125 177.344707 
L 501.308125 177.344707 
" clip-path="url(#p321bf5aa5f)" style="fill: none; stroke: #b0b0b0; stroke-opacity: 0.25; stroke-width: 0.8; stroke-linecap: square"/>
     </g>
     <g id="line2d_26">
      <g>
       <use xlink:href="#m65ea3abb11" x="42.828125" y="177.344707" style="stroke: #000000; stroke-width: 0.8"/>
      </g>
     </g>
     <g id="text_14">
      <!-- 0.045 -->
      <g transform="translate(7.2 181.143925) scale(0.1 -0.1)">
       <use xlink:href="#DejaVuSans-30"/>
       <use xlink:href="#DejaVuSans-2e" x="63.623047"/>
       <use xlink:href="#DejaVuSans-30" x="95.410156"/>
       <use xlink:href="#DejaVuSans-34" x="159.033203"/>
       <use xlink:href="#DejaVuSans-35" x="222.65625"/>
      </g>
     </g>
    </g>
    <g id="ytick_5">
     <g id="line2d_27">
      <path d="M 42.828125 142.197675 
L 501.308125 142.197675 
" clip-path="url(#p321bf5aa5f)" style="fill: none; stroke: #b0b0b0; stroke-opacity: 0.25; stroke-width: 0.8; stroke-linecap: square"/>
     </g>
     <g id="line2d_28">
      <g>
       <use xlink:href="#m65ea3abb11" x="42.828125" y="142.197675" style="stroke: #000000; stroke-width: 0.8"/>
      </g>
     </g>
     <g id="text_15">
      <!-- 0.050 -->
      <g transform="translate(7.2 145.996894) scale(0.1 -0.1)">
       <use xlink:href="#DejaVuSans-30"/>
       <use xlink:href="#DejaVuSans-2e" x="63.623047"/>
       <use xlink:href="#DejaVuSans-30" x="95.410156"/>
       <use xlink:href="#DejaVuSans-35" x="159.033203"/>
       <use xlink:href="#DejaVuSans-30" x="222.65625"/>
      </g>
     </g>
    </g>
    <g id="ytick_6">
     <g id="line2d_29">
      <path d="M 42.828125 107.050643 
L 501.308125 107.050643 
" clip-path="url(#p321bf5aa5f)" style="fill: none; stroke: #b0b0b0; stroke-opacity: 0.25; stroke-width: 0.8; stroke-linecap: square"/>
     </g>
     <g id="line2d_30">
      <g>
       <use xlink:href="#m65ea3abb11" x="42.828125" y="107.050643" style="stroke: #000000; stroke-width: 0.8"/>
      </g>
     </g>
     <g id="text_16">
      <!-- 0.055 -->
      <g transform="translate(7.2 110.849862) scale(0.1 -0.1)">
       <use xlink:href="#DejaVuSans-30"/>
       <use xlink:href="#DejaVuSans-2e" x="63.623047"/>
       <use xlink:href="#DejaVuSans-30" x="95.410156"/>
       <use xlink:href="#DejaVuSans-35" x="159.033203"/>
       <use xlink:href="#DejaVuSans-35" x="222.65625"/>
      </g>
     </g>
    </g>
    <g id="ytick_7">
     <g id="line2d_31">
      <path d="M 42.828125 71.903612 
L 501.308125 71.903612 
" clip-path="url(#p321bf5aa5f)" style="fill: none; stroke: #b0b0b0; stroke-opacity: 0.25; stroke-width: 0.8; stroke-linecap: square"/>
     </g>
     <g id="line2d_32">
      <g>
       <use xlink:href="#m65ea3abb11" x="42.828125" y="71.903612" style="stroke: #000000; stroke-width: 0.8"/>
      </g>
     </g>
     <g id="text_17">
      <!-- 0.060 -->
      <g transform="translate(7.2 75.70283) scale(0.1 -0.1)">
       <use xlink:href="#DejaVuSans-30"/>
       <use xlink:href="#DejaVuSans-2e" x="63.623047"/>
       <use xlink:href="#DejaVuSans-30" x="95.410156"/>
       <use xlink:href="#DejaVuSans-36" x="159.033203"/>
       <use xlink:href="#DejaVuSans-30" x="222.65625"/>
      </g>
     </g>
    </g>
   </g>
   <g id="line2d_33">
    <path d="M 42.828125 290.307273 
L 59.30046 290.307273 
L 62.04585 288.760798 
L 81.263574 288.760798 
L 84.008963 81.252727 
L 89.499742 81.252727 
L 92.245131 288.760798 
L 100.481299 288.760798 
L 103.226688 290.307273 
L 256.968484 290.307273 
L 259.713874 288.760798 
L 278.931598 288.760798 
L 281.676987 81.252727 
L 287.167766 81.252727 
L 289.913155 288.760798 
L 298.149323 288.760798 
L 300.894712 290.307273 
L 322.857826 290.307273 
L 325.603215 288.760798 
L 344.820939 288.760798 
L 347.566329 81.252727 
L 353.057107 81.252727 
L 355.802496 288.760798 
L 364.038664 288.760798 
L 366.784053 290.307273 
L 388.747167 290.307273 
L 391.492556 288.760798 
L 410.710281 288.760798 
L 413.45567 81.252727 
L 418.946448 81.252727 
L 421.691838 288.760798 
L 429.928005 288.760798 
L 432.673394 290.307273 
L 454.636508 290.307273 
L 457.381897 288.760798 
L 476.599622 288.760798 
L 479.345011 81.252727 
L 484.83579 81.252727 
L 487.581179 288.760798 
L 495.817347 288.760798 
L 498.562736 290.307273 
L 501.308125 290.307273 
L 501.308125 290.307273 
" clip-path="url(#p321bf5aa5f)" style="fill: none; stroke: #2563eb; stroke-width: 2; stroke-linecap: square"/>
   </g>
   <g id="patch_3">
    <path d="M 42.828125 300.76 
L 42.828125 70.8 
" style="fill: none; stroke: #000000; stroke-width: 0.8; stroke-linejoin: miter; stroke-linecap: square"/>
   </g>
   <g id="patch_4">
    <path d="M 501.308125 300.76 
L 501.308125 70.8 
" style="fill: none; stroke: #000000; stroke-width: 0.8; stroke-linejoin: miter; stroke-linecap: square"/>
   </g>
   <g id="patch_5">
    <path d="M 42.828125 300.76 
L 501.308125 300.76 
" style="fill: none; stroke: #000000; stroke-width: 0.8; stroke-linejoin: miter; stroke-linecap: square"/>
   </g>
   <g id="patch_6">
    <path d="M 42.828125 70.8 
L 501.308125 70.8 
" style="fill: none; stroke: #000000; stroke-width: 0.8; stroke-linejoin: miter; stroke-linecap: square"/>
   </g>
   <g id="text_18">
    <!-- Price Sample (first 168 steps) -->
    <g transform="translate(183.343125 64.8) scale(0.12 -0.12)">
     <defs>
      <path id="DejaVuSans-50" d="M 1259 4147 
L 1259 2394 
L 2053 2394 
Q 2494 2394 2734 2622 
Q 2975 2850 2975 3272 
Q 2975 3691 2734 3919 
Q 2494 4147 2053 4147 
L 1259 4147 
z
M 628 4666 
L 2053 4666 
Q 2838 4666 3239 4311 
Q 3641 3956 3641 3272 
Q 3641 2581 3239 2228 
Q 2838 1875 2053 1875 
L 1259 1875 
L 1259 0 
L 628 0 
L 628 4666 
z
" transform="scale(0.015625)"/>
      <path id="DejaVuSans-72" d="M 2631 2963 
Q 2534 3019 2420 3045 
Q 2306 3072 2169 3072 
Q 1681 3072 1420 2755 
Q 1159 2438 1159 1844 
L 1159 0 
L 581 0 
L 581 3500 
L 1159 3500 
L 1159 2956 
Q 1341 3275 1631 3429 
Q 1922 3584 2338 3584 
Q 2397 3584 2469 3576 
Q 2541 3569 2628 3553 
L 2631 2963 
z
" transform="scale(0.015625)"/>
      <path id="DejaVuSans-63" d="M 3122 3366 
L 3122 2828 
Q 2878 2963 2633 3030 
Q 2388 3097 2138 3097 
Q 1578 3097 1268 2742 
Q 959 2388 959 1747 
Q 959 1106 1268 751 
Q 1578 397 2138 397 
Q 2388 397 2633 464 
Q 2878 531 3122 666 
L 3122 134 
Q 2881 22 2623 -34 
Q 2366 -91 2075 -91 
Q 1284 -91 818 406 
Q 353 903 353 1747 
Q 353 2603 823 3093 
Q 1294 3584 2113 3584 
Q 2378 3584 2631 3529 
Q 2884 3475 3122 3366 
z
" transform="scale(0.015625)"/>
      <path id="DejaVuSans-53" d="M 3425 4513 
L 3425 3897 
Q 3066 4069 2747 4153 
Q 2428 4238 2131 4238 
Q 1616 4238 1336 4038 
Q 1056 3838 1056 3469 
Q 1056 3159 1242 3001 
Q 1428 2844 1947 2747 
L 2328 2669 
Q 3034 2534 3370 2195 
Q 3706 1856 3706 1288 
Q 3706 609 3251 259 
Q 2797 -91 1919 -91 
Q 1588 -91 1214 -16 
Q 841 59 441 206 
L 441 856 
Q 825 641 1194 531 
Q 1563 422 1919 422 
Q 2459 422 2753 634 
Q 3047 847 3047 1241 
Q 3047 1584 2836 1778 
Q 2625 1972 2144 2069 
L 1759 2144 
Q 1053 2284 737 2584 
Q 422 2884 422 3419 
Q 422 4038 858 4394 
Q 1294 4750 2059 4750 
Q 2388 4750 2728 4690 
Q 3069 4631 3425 4513 
z
" transform="scale(0.015625)"/>
      <path id="DejaVuSans-61" d="M 2194 1759 
Q 1497 1759 1228 1600 
Q 959 1441 959 1056 
Q 959 750 1161 570 
Q 1363 391 1709 391 
Q 2188 391 2477 730 
Q 2766 1069 2766 1631 
L 2766 1759 
L 2194 1759 
z
M 3341 1997 
L 3341 0 
L 2766 0 
L 2766 531 
Q 2569 213 2275 61 
Q 1981 -91 1556 -91 
Q 1019 -91 701 211 
Q 384 513 384 1019 
Q 384 1609 779 1909 
Q 1175 2209 1959 2209 
L 2766 2209 
L 2766 2266 
Q 2766 2663 2505 2880 
Q 2244 3097 1772 3097 
Q 1472 3097 1187 3025 
Q 903 2953 641 2809 
L 641 3341 
Q 956 3463 1253 3523 
Q 1550 3584 1831 3584 
Q 2591 3584 2966 3190 
Q 3341 2797 3341 1997 
z
" transform="scale(0.015625)"/>
      <path id="DejaVuSans-6c" d="M 603 4863 
L 1178 4863 
L 1178 0 
L 603 0 
L 603 4863 
z
" transform="scale(0.015625)"/>
      <path id="DejaVuSans-28" d="M 1984 4856 
Q 1566 4138 1362 3434 
Q 1159 2731 1159 2009 
Q 1159 1288 1364 580 
Q 1569 -128 1984 -844 
L 1484 -844 
Q 1016 -109 783 600 
Q 550 1309 550 2009 
Q 550 2706 781 3412 
Q 1013 4119 1484 4856 
L 1984 4856 
z
" transform="scale(0.015625)"/>
      <path id="DejaVuSans-66" d="M 2375 4863 
L 2375 4384 
L 1825 4384 
Q 1516 4384 1395 4259 
Q 1275 4134 1275 3809 
L 1275 3500 
L 2222 3500 
L 2222 3053 
L 1275 3053 
L 1275 0 
L 697 0 
L 697 3053 
L 147 3053 
L 147 3500 
L 697 3500 
L 697 3744 
Q 697 4328 969 4595 
Q 1241 4863 1831 4863 
L 2375 4863 
z
" transform="scale(0.015625)"/>
      <path id="DejaVuSans-29" d="M 513 4856 
L 1013 4856 
Q 1481 4119 1714 3412 
Q 1947 2706 1947 2009 
Q 1947 1309 1714 600 
Q 1481 -109 1013 -844 
L 513 -844 
Q 928 -128 1133 580 
Q 1338 1288 1338 2009 
Q 1338 2731 1133 3434 
Q 928 4138 513 4856 
z
" transform="scale(0.015625)"/>
     </defs>
     <use xlink:href="#DejaVuSans-50"/>
     <use xlink:href="#DejaVuSans-72" x="58.552734"/>
     <use xlink:href="#DejaVuSans-69" x="99.666016"/>
     <use xlink:href="#DejaVuSans-63" x="127.449219"/>
     <use xlink:href="#DejaVuSans-65" x="182.429688"/>
     <use xlink:href="#DejaVuSans-20" x="243.953125"/>
     <use xlink:href="#DejaVuSans-53" x="275.740234"/>
     <use xlink:href="#DejaVuSans-61" x="339.216797"/>
     <use xlink:href="#DejaVuSans-6d" x="400.496094"/>
     <use xlink:href="#DejaVuSans-70" x="497.908203"/>
     <use xlink:href="#DejaVuSans-6c" x="561.384766"/>
     <use xlink:href="#DejaVuSans-65" x="589.167969"/>
     <use xlink:href="#DejaVuSans-20" x="650.691406"/>
     <use xlink:href="#DejaVuSans-28" x="682.478516"/>
     <use xlink:href="#DejaVuSans-66" x="721.492188"/>
     <use xlink:href="#DejaVuSans-69" x="756.697266"/>
     <use xlink:href="#DejaVuSans-72" x="784.480469"/>
     <use xlink:href="#DejaVuSans-73" x="825.59375"/>
     <use xlink:href="#DejaVuSans-74" x="877.693359"/>
     <use xlink:href="#DejaVuSans-20" x="916.902344"/>
     <use xlink:href="#DejaVuSans-31" x="948.689453"/>
     <use xlink:href="#DejaVuSans-36" x="1012.3125"/>
     <use xlink:href="#DejaVuSans-38" x="1075.935547"/>
     <use xlink:href="#DejaVuSans-20" x="1139.558594"/>
     <use xlink:href="#DejaVuSans-73" x="1171.345703"/>
     <use xlink:href="#DejaVuSans-74" x="1223.445312"/>
     <use xlink:href="#DejaVuSans-65" x="1262.654297"/>
     <use xlink:href="#DejaVuSans-70" x="1324.177734"/>
     <use xlink:href="#DejaVuSans-73" x="1387.654297"/>
     <use xlink:href="#DejaVuSans-29" x="1439.753906"/>
    </g>
   </g>
  </g>
  <g id="axes_2">
   <g id="patch_7">
    <path d="M 535.038125 300.76 
L 993.518125 300.76 
L 993.518125 70.8 
L 535.038125 70.8 
z
" style="fill: #ffffff"/>
   </g>
   <g id="matplotlib.axis_3">
    <g id="xtick_10">
     <g id="line2d_34">
      <path d="M 535.038125 300.76 
L 535.038125 70.8 
" clip-path="url(#p3991e4cf6a)" style="fill: none; stroke: #b0b0b0; stroke-opacity: 0.25; stroke-width: 0.8; stroke-linecap: square"/>
     </g>
     <g id="line2d_35">
      <g>
       <use xlink:href="#ma6e5ced265" x="535.038125" y="300.76" style="stroke: #000000; stroke-width: 0.8"/>
      </g>
     </g>
     <g id="text_19">
      <!-- 0 -->
      <g transform="translate(531.856875 315.358437) scale(0.1 -0.1)">
       <use xlink:href="#DejaVuSans-30"/>
      </g>
     </g>
    </g>
    <g id="xtick_11">
     <g id="line2d_36">
      <path d="M 589.945909 300.76 
L 589.945909 70.8 
" clip-path="url(#p3991e4cf6a)" style="fill: none; stroke: #b0b0b0; stroke-opacity: 0.25; stroke-width: 0.8; stroke-linecap: square"/>
     </g>
     <g id="line2d_37">
      <g>
       <use xlink:href="#ma6e5ced265" x="589.945909" y="300.76" style="stroke: #000000; stroke-width: 0.8"/>
      </g>
     </g>
     <g id="text_20">
      <!-- 20 -->
      <g transform="translate(583.583409 315.358437) scale(0.1 -0.1)">
       <use xlink:href="#DejaVuSans-32"/>
       <use xlink:href="#DejaVuSans-30" x="63.623047"/>
      </g>
     </g>
    </g>
    <g id="xtick_12">
     <g id="line2d_38">
      <path d="M 644.853694 300.76 
L 644.853694 70.8 
" clip-path="url(#p3991e4cf6a)" style="fill: none; stroke: #b0b0b0; stroke-opacity: 0.25; stroke-width: 0.8; stroke-linecap: square"/>
     </g>
     <g id="line2d_39">
      <g>
       <use xlink:href="#ma6e5ced265" x="644.853694" y="300.76" style="stroke: #000000; stroke-width: 0.8"/>
      </g>
     </g>
     <g id="text_21">
      <!-- 40 -->
      <g transform="translate(638.491194 315.358437) scale(0.1 -0.1)">
       <use xlink:href="#DejaVuSans-34"/>
       <use xlink:href="#DejaVuSans-30" x="63.623047"/>
      </g>
     </g>
    </g>
    <g id="xtick_13">
     <g id="line2d_40">
      <path d="M 699.761478 300.76 
L 699.761478 70.8 
" clip-path="url(#p3991e4cf6a)" style="fill: none; stroke: #b0b0b0; stroke-opacity: 0.25; stroke-width: 0.8; stroke-linecap: square"/>
     </g>
     <g id="line2d_41">
      <g>
       <use xlink:href="#ma6e5ced265" x="699.761478" y="300.76" style="stroke: #000000; stroke-width: 0.8"/>
      </g>
     </g>
     <g id="text_22">
      <!-- 60 -->
      <g transform="translate(693.398978 315.358437) scale(0.1 -0.1)">
       <use xlink:href="#DejaVuSans-36"/>
       <use xlink:href="#DejaVuSans-30" x="63.623047"/>
      </g>
     </g>
    </g>
    <g id="xtick_14">
     <g id="line2d_42">
      <path d="M 754.669263 300.76 
L 754.669263 70.8 
" clip-path="url(#p3991e4cf6a)" style="fill: none; stroke: #b0b0b0; stroke-opacity: 0.25; stroke-width: 0.8; stroke-linecap: square"/>
     </g>
     <g id="line2d_43">
      <g>
       <use xlink:href="#ma6e5ced265" x="754.669263" y="300.76" style="stroke: #000000; stroke-width: 0.8"/>
      </g>
     </g>
     <g id="text_23">
      <!-- 80 -->
      <g transform="translate(748.306763 315.358437) scale(0.1 -0.1)">
       <use xlink:href="#DejaVuSans-38"/>
       <use xlink:href="#DejaVuSans-30" x="63.623047"/>
      </g>
     </g>
    </g>
    <g id="xtick_15">
     <g id="line2d_44">
      <path d="M 809.577047 300.76 
L 809.577047 70.8 
" clip-path="url(#p3991e4cf6a)" style="fill: none; stroke: #b0b0b0; stroke-opacity: 0.25; stroke-width: 0.8; stroke-linecap: square"/>
     </g>
     <g id="line2d_45">
      <g>
       <use xlink:href="#ma6e5ced265" x="809.577047" y="300.76" style="stroke: #000000; stroke-width: 0.8"/>
      </g>
     </g>
     <g id="text_24">
      <!-- 100 -->
      <g transform="translate(800.033297 315.358437) scale(0.1 -0.1)">
       <use xlink:href="#DejaVuSans-31"/>
       <use xlink:href="#DejaVuSans-30" x="63.623047"/>
       <use xlink:href="#DejaVuSans-30" x="127.246094"/>
      </g>
     </g>
    </g>
    <g id="xtick_16">
     <g id="line2d_46">
      <path d="M 864.484832 300.76 
L 864.484832 70.8 
" clip-path="url(#p3991e4cf6a)" style="fill: none; stroke: #b0b0b0; stroke-opacity: 0.25; stroke-width: 0.8; stroke-linecap: square"/>
     </g>
     <g id="line2d_47">
      <g>
       <use xlink:href="#ma6e5ced265" x="864.484832" y="300.76" style="stroke: #000000; stroke-width: 0.8"/>
      </g>
     </g>
     <g id="text_25">
      <!-- 120 -->
      <g transform="translate(854.941082 315.358437) scale(0.1 -0.1)">
       <use xlink:href="#DejaVuSans-31"/>
       <use xlink:href="#DejaVuSans-32" x="63.623047"/>
       <use xlink:href="#DejaVuSans-30" x="127.246094"/>
      </g>
     </g>
    </g>
    <g id="xtick_17">
     <g id="line2d_48">
      <path d="M 919.392616 300.76 
L 919.392616 70.8 
" clip-path="url(#p3991e4cf6a)" style="fill: none; stroke: #b0b0b0; stroke-opacity: 0.25; stroke-width: 0.8; stroke-linecap: square"/>
     </g>
     <g id="line2d_49">
      <g>
       <use xlink:href="#ma6e5ced265" x="919.392616" y="300.76" style="stroke: #000000; stroke-width: 0.8"/>
      </g>
     </g>
     <g id="text_26">
      <!-- 140 -->
      <g transform="translate(909.848866 315.358437) scale(0.1 -0.1)">
       <use xlink:href="#DejaVuSans-31"/>
       <use xlink:href="#DejaVuSans-34" x="63.623047"/>
       <use xlink:href="#DejaVuSans-30" x="127.246094"/>
      </g>
     </g>
    </g>
    <g id="xtick_18">
     <g id="line2d_50">
      <path d="M 974.3004 300.76 
L 974.3004 70.8 
" clip-path="url(#p3991e4cf6a)" style="fill: none; stroke: #b0b0b0; stroke-opacity: 0.25; stroke-width: 0.8; stroke-linecap: square"/>
     </g>
     <g id="line2d_51">
      <g>
       <use xlink:href="#ma6e5ced265" x="974.3004" y="300.76" style="stroke: #000000; stroke-width: 0.8"/>
      </g>
     </g>
     <g id="text_27">
      <!-- 160 -->
      <g transform="translate(964.75665 315.358437) scale(0.1 -0.1)">
       <use xlink:href="#DejaVuSans-31"/>
       <use xlink:href="#DejaVuSans-36" x="63.623047"/>
       <use xlink:href="#DejaVuSans-30" x="127.246094"/>
      </g>
     </g>
    </g>
    <g id="text_28">
     <!-- Time step -->
     <g transform="translate(739.639844 329.036562) scale(0.1 -0.1)">
      <use xlink:href="#DejaVuSans-54"/>
      <use xlink:href="#DejaVuSans-69" x="57.958984"/>
      <use xlink:href="#DejaVuSans-6d" x="85.742188"/>
      <use xlink:href="#DejaVuSans-65" x="183.154297"/>
      <use xlink:href="#DejaVuSans-20" x="244.677734"/>
      <use xlink:href="#DejaVuSans-73" x="276.464844"/>
      <use xlink:href="#DejaVuSans-74" x="328.564453"/>
      <use xlink:href="#DejaVuSans-65" x="367.773438"/>
      <use xlink:href="#DejaVuSans-70" x="429.296875"/>
     </g>
    </g>
   </g>
   <g id="matplotlib.axis_4">
    <g id="ytick_8">
     <g id="line2d_52">
      <path d="M 535.038125 280.296141 
L 993.518125 280.296141 
" clip-path="url(#p3991e4cf6a)" style="fill: none; stroke: #b0b0b0; stroke-opacity: 0.25; stroke-width: 0.8; stroke-linecap: square"/>
     </g>
     <g id="line2d_53">
      <g>
       <use xlink:href="#m65ea3abb11" x="535.038125" y="280.296141" style="stroke: #000000; stroke-width: 0.8"/>
      </g>
     </g>
     <g id="text_29">
      <!-- 0.5 -->
      <g transform="translate(512.135 284.09536) scale(0.1 -0.1)">
       <use xlink:href="#DejaVuSans-30"/>
       <use xlink:href="#DejaVuSans-2e" x="63.623047"/>
       <use xlink:href="#DejaVuSans-35" x="95.410156"/>
      </g>
     </g>
    </g>
    <g id="ytick_9">
     <g id="line2d_54">
      <path d="M 535.038125 253.737409 
L 993.518125 253.737409 
" clip-path="url(#p3991e4cf6a)" style="fill: none; stroke: #b0b0b0; stroke-opacity: 0.25; stroke-width: 0.8; stroke-linecap: square"/>
     </g>
     <g id="line2d_55">
      <g>
       <use xlink:href="#m65ea3abb11" x="535.038125" y="253.737409" style="stroke: #000000; stroke-width: 0.8"/>
      </g>
     </g>
     <g id="text_30">
      <!-- 1.0 -->
      <g transform="translate(512.135 257.536627) scale(0.1 -0.1)">
       <use xlink:href="#DejaVuSans-31"/>
       <use xlink:href="#DejaVuSans-2e" x="63.623047"/>
       <use xlink:href="#DejaVuSans-30" x="95.410156"/>
      </g>
     </g>
    </g>
    <g id="ytick_10">
     <g id="line2d_56">
      <path d="M 535.038125 227.178676 
L 993.518125 227.178676 
" clip-path="url(#p3991e4cf6a)" style="fill: none; stroke: #b0b0b0; stroke-opacity: 0.25; stroke-width: 0.8; stroke-linecap: square"/>
     </g>
     <g id="line2d_57">
      <g>
       <use xlink:href="#m65ea3abb11" x="535.038125" y="227.178676" style="stroke: #000000; stroke-width: 0.8"/>
      </g>
     </g>
     <g id="text_31">
      <!-- 1.5 -->
      <g transform="translate(512.135 230.977895) scale(0.1 -0.1)">
       <use xlink:href="#DejaVuSans-31"/>
       <use xlink:href="#DejaVuSans-2e" x="63.623047"/>
       <use xlink:href="#DejaVuSans-35" x="95.410156"/>
      </g>
     </g>
    </g>
    <g id="ytick_11">
     <g id="line2d_58">
      <path d="M 535.038125 200.619943 
L 993.518125 200.619943 
" clip-path="url(#p3991e4cf6a)" style="fill: none; stroke: #b0b0b0; stroke-opacity: 0.25; stroke-width: 0.8; stroke-linecap: square"/>
     </g>
     <g id="line2d_59">
      <g>
       <use xlink:href="#m65ea3abb11" x="535.038125" y="200.619943" style="stroke: #000000; stroke-width: 0.8"/>
      </g>
     </g>
     <g id="text_32">
      <!-- 2.0 -->
      <g transform="translate(512.135 204.419162) scale(0.1 -0.1)">
       <use xlink:href="#DejaVuSans-32"/>
       <use xlink:href="#DejaVuSans-2e" x="63.623047"/>
       <use xlink:href="#DejaVuSans-30" x="95.410156"/>
      </g>
     </g>
    </g>
    <g id="ytick_12">
     <g id="line2d_60">
      <path d="M 535.038125 174.06121 
L 993.518125 174.06121 
" clip-path="url(#p3991e4cf6a)" style="fill: none; stroke: #b0b0b0; stroke-opacity: 0.25; stroke-width: 0.8; stroke-linecap: square"/>
     </g>
     <g id="line2d_61">
      <g>
       <use xlink:href="#m65ea3abb11" x="535.038125" y="174.06121" style="stroke: #000000; stroke-width: 0.8"/>
      </g>
     </g>
     <g id="text_33">
      <!-- 2.5 -->
      <g transform="translate(512.135 177.860429) scale(0.1 -0.1)">
       <use xlink:href="#DejaVuSans-32"/>
       <use xlink:href="#DejaVuSans-2e" x="63.623047"/>
       <use xlink:href="#DejaVuSans-35" x="95.410156"/>
      </g>
     </g>
    </g>
    <g id="ytick_13">
     <g id="line2d_62">
      <path d="M 535.038125 147.502477 
L 993.518125 147.502477 
" clip-path="url(#p3991e4cf6a)" style="fill: none; stroke: #b0b0b0; stroke-opacity: 0.25; stroke-width: 0.8; stroke-linecap: square"/>
     </g>
     <g id="line2d_63">
      <g>
       <use xlink:href="#m65ea3abb11" x="535.038125" y="147.502477" style="stroke: #000000; stroke-width: 0.8"/>
      </g>
     </g>
     <g id="text_34">
      <!-- 3.0 -->
      <g transform="translate(512.135 151.301696) scale(0.1 -0.1)">
       <use xlink:href="#DejaVuSans-33"/>
       <use xlink:href="#DejaVuSans-2e" x="63.623047"/>
       <use xlink:href="#DejaVuSans-30" x="95.410156"/>
      </g>
     </g>
    </g>
    <g id="ytick_14">
     <g id="line2d_64">
      <path d="M 535.038125 120.943745 
L 993.518125 120.943745 
" clip-path="url(#p3991e4cf6a)" style="fill: none; stroke: #b0b0b0; stroke-opacity: 0.25; stroke-width: 0.8; stroke-linecap: square"/>
     </g>
     <g id="line2d_65">
      <g>
       <use xlink:href="#m65ea3abb11" x="535.038125" y="120.943745" style="stroke: #000000; stroke-width: 0.8"/>
      </g>
     </g>
     <g id="text_35">
      <!-- 3.5 -->
      <g transform="translate(512.135 124.742963) scale(0.1 -0.1)">
       <use xlink:href="#DejaVuSans-33"/>
       <use xlink:href="#DejaVuSans-2e" x="63.623047"/>
       <use xlink:href="#DejaVuSans-35" x="95.410156"/>
      </g>
     </g>
    </g>
    <g id="ytick_15">
     <g id="line2d_66">
      <path d="M 535.038125 94.385012 
L 993.518125 94.385012 
" clip-path="url(#p3991e4cf6a)" style="fill: none; stroke: #b0b0b0; stroke-opacity: 0.25; stroke-width: 0.8; stroke-linecap: square"/>
     </g>
     <g id="line2d_67">
      <g>
       <use xlink:href="#m65ea3abb11" x="535.038125" y="94.385012" style="stroke: #000000; stroke-width: 0.8"/>
      </g>
     </g>
     <g id="text_36">
      <!-- 4.0 -->
      <g transform="translate(512.135 98.184231) scale(0.1 -0.1)">
       <use xlink:href="#DejaVuSans-34"/>
       <use xlink:href="#DejaVuSans-2e" x="63.623047"/>
       <use xlink:href="#DejaVuSans-30" x="95.410156"/>
      </g>
     </g>
    </g>
   </g>
   <g id="line2d_68">
    <path d="M 535.038125 289.746577 
L 540.528903 290.211615 
L 543.274293 290.193035 
L 546.019682 289.396863 
L 548.765071 287.775446 
L 551.51046 282.93624 
L 554.25585 277.22026 
L 557.001239 269.940136 
L 559.746628 264.761397 
L 562.492017 258.817889 
L 565.237406 264.624576 
L 567.982796 265.659614 
L 570.728185 272.90405 
L 573.473574 278.28636 
L 576.218963 258.23161 
L 578.964353 279.020094 
L 581.709742 272.967805 
L 584.455131 275.067765 
L 587.20052 272.029695 
L 589.945909 272.078734 
L 592.691299 270.879179 
L 595.436688 278.563284 
L 598.182077 287.880606 
L 600.927466 289.793121 
L 606.418245 290.269421 
L 609.163634 289.923505 
L 611.909023 271.583257 
L 614.654412 269.733953 
L 617.399802 267.744969 
L 620.145191 278.992657 
L 622.89058 270.018492 
L 625.635969 262.372452 
L 628.381359 242.569441 
L 631.126748 235.912415 
L 633.872137 161.61378 
L 636.617526 220.591441 
L 639.362915 272.137984 
L 642.108305 271.28751 
L 644.853694 256.752651 
L 647.599083 277.475899 
L 650.344472 273.254671 
L 653.089862 280.934415 
L 655.835251 285.938904 
L 658.58064 284.286804 
L 661.326029 286.089827 
L 664.071418 289.31296 
L 666.816808 289.793121 
L 675.052975 290.193035 
L 677.798365 289.396863 
L 680.543754 287.742116 
L 683.289143 285.786461 
L 686.034532 281.500223 
L 688.779921 254.571019 
L 691.525311 263.189159 
L 694.2707 265.490901 
L 697.016089 256.779426 
L 699.761478 264.825493 
L 702.506868 140.55936 
L 705.252257 270.762599 
L 707.997646 237.059043 
L 710.743035 275.61836 
L 713.488424 274.195978 
L 716.233814 271.923468 
L 718.979203 272.597808 
L 721.724592 270.628754 
L 724.469981 271.061008 
L 727.215371 287.170167 
L 729.96076 288.978204 
L 732.706149 289.700033 
L 740.942317 290.193035 
L 743.687706 289.396863 
L 746.433095 269.205878 
L 749.178484 280.560692 
L 751.923874 276.37205 
L 754.669263 271.748132 
L 757.414652 265.678575 
L 760.160041 266.288138 
L 762.90543 270.413327 
L 765.65082 269.544918 
L 768.396209 267.881426 
L 771.141598 275.899866 
L 773.886987 274.378213 
L 776.632376 273.91728 
L 779.377766 261.632268 
L 782.123155 273.254671 
L 784.868544 277.10802 
L 787.613933 270.349271 
L 790.359323 275.888724 
L 793.104712 280.992616 
L 795.850101 287.880606 
L 798.59549 289.250555 
L 801.340879 289.934281 
L 804.086269 289.987317 
L 806.831658 289.923505 
L 809.577047 289.396863 
L 812.322436 287.280701 
L 815.067826 285.311789 
L 817.813215 280.652013 
L 823.303993 268.067523 
L 826.049382 269.486612 
L 828.794772 270.413327 
L 831.540161 261.530252 
L 834.28555 270.588545 
L 837.030939 275.319637 
L 839.776329 276.075144 
L 842.521718 278.8552 
L 845.267107 263.320265 
L 848.012496 275.536638 
L 850.757885 276.424201 
L 853.503275 273.528714 
L 856.248664 285.70833 
L 858.994053 282.072954 
L 861.739442 289.647715 
L 872.720999 290.307273 
L 875.466388 289.396863 
L 878.211778 278.186645 
L 880.957167 81.252727 
L 883.702556 276.37205 
L 886.447945 269.07576 
L 889.193335 265.678575 
L 891.938724 265.490901 
L 894.684113 270.413327 
L 897.429502 270.379042 
L 900.174891 275.09802 
L 902.920281 277.491197 
L 905.66567 276.075144 
L 908.411059 279.844308 
L 911.156448 279.851134 
L 913.901838 271.923468 
L 916.647227 262.892922 
L 919.392616 152.26144 
L 922.138005 279.27726 
L 924.883394 288.250507 
L 927.628784 289.647715 
L 930.374173 289.793121 
L 933.119562 286.017584 
L 938.610341 286.695642 
L 941.35573 288.62063 
L 944.101119 287.808775 
L 946.846508 276.002297 
L 949.591897 274.263291 
L 952.337287 270.88376 
L 955.082676 268.984702 
L 957.828065 268.689382 
L 960.573454 179.642281 
L 963.318844 242.65464 
L 966.064233 269.305675 
L 971.555011 278.280737 
L 974.3004 269.17387 
L 977.04579 271.179434 
L 979.791179 270.324278 
L 985.281957 272.078734 
L 988.027347 272.664364 
L 990.772736 289.330846 
L 993.518125 289.647715 
L 993.518125 289.647715 
" clip-path="url(#p3991e4cf6a)" style="fill: none; stroke: #dc2626; stroke-width: 2; stroke-linecap: square"/>
   </g>
   <g id="patch_8">
    <path d="M 535.038125 300.76 
L 535.038125 70.8 
" style="fill: none; stroke: #000000; stroke-width: 0.8; stroke-linejoin: miter; stroke-linecap: square"/>
   </g>
   <g id="patch_9">
    <path d="M 993.518125 300.76 
L 993.518125 70.8 
" style="fill: none; stroke: #000000; stroke-width: 0.8; stroke-linejoin: miter; stroke-linecap: square"/>
   </g>
   <g id="patch_10">
    <path d="M 535.038125 300.76 
L 993.518125 300.76 
" style="fill: none; stroke: #000000; stroke-width: 0.8; stroke-linejoin: miter; stroke-linecap: square"/>
   </g>
   <g id="patch_11">
    <path d="M 535.038125 70.8 
L 993.518125 70.8 
" style="fill: none; stroke: #000000; stroke-width: 0.8; stroke-linejoin: miter; stroke-linecap: square"/>
   </g>
   <g id="text_37">
    <!-- Load Sample (first 168 steps) -->
    <g transform="translate(675.795 64.8) scale(0.12 -0.12)">
     <defs>
      <path id="DejaVuSans-4c" d="M 628 4666 
L 1259 4666 
L 1259 531 
L 3531 531 
L 3531 0 
L 628 0 
L 628 4666 
z
" transform="scale(0.015625)"/>
      <path id="DejaVuSans-6f" d="M 1959 3097 
Q 1497 3097 1228 2736 
Q 959 2375 959 1747 
Q 959 1119 1226 758 
Q 1494 397 1959 397 
Q 2419 397 2687 759 
Q 2956 1122 2956 1747 
Q 2956 2369 2687 2733 
Q 2419 3097 1959 3097 
z
M 1959 3584 
Q 2709 3584 3137 3096 
Q 3566 2609 3566 1747 
Q 3566 888 3137 398 
Q 2709 -91 1959 -91 
Q 1206 -91 779 398 
Q 353 888 353 1747 
Q 353 2609 779 3096 
Q 1206 3584 1959 3584 
z
" transform="scale(0.015625)"/>
      <path id="DejaVuSans-64" d="M 2906 2969 
L 2906 4863 
L 3481 4863 
L 3481 0 
L 2906 0 
L 2906 525 
Q 2725 213 2448 61 
Q 2172 -91 1784 -91 
Q 1150 -91 751 415 
Q 353 922 353 1747 
Q 353 2572 751 3078 
Q 1150 3584 1784 3584 
Q 2172 3584 2448 3432 
Q 2725 3281 2906 2969 
z
M 947 1747 
Q 947 1113 1208 752 
Q 1469 391 1925 391 
Q 2381 391 2643 752 
Q 2906 1113 2906 1747 
Q 2906 2381 2643 2742 
Q 2381 3103 1925 3103 
Q 1469 3103 1208 2742 
Q 947 2381 947 1747 
z
" transform="scale(0.015625)"/>
     </defs>
     <use xlink:href="#DejaVuSans-4c"/>
     <use xlink:href="#DejaVuSans-6f" x="53.962891"/>
     <use xlink:href="#DejaVuSans-61" x="115.144531"/>
     <use xlink:href="#DejaVuSans-64" x="176.423828"/>
     <use xlink:href="#DejaVuSans-20" x="239.900391"/>
     <use xlink:href="#DejaVuSans-53" x="271.6875"/>
     <use xlink:href="#DejaVuSans-61" x="335.164062"/>
     <use xlink:href="#DejaVuSans-6d" x="396.443359"/>
     <use xlink:href="#DejaVuSans-70" x="493.855469"/>
     <use xlink:href="#DejaVuSans-6c" x="557.332031"/>
     <use xlink:href="#DejaVuSans-65" x="585.115234"/>
     <use xlink:href="#DejaVuSans-20" x="646.638672"/>
     <use xlink:href="#DejaVuSans-28" x="678.425781"/>
     <use xlink:href="#DejaVuSans-66" x="717.439453"/>
     <use xlink:href="#DejaVuSans-69" x="752.644531"/>
     <use xlink:href="#DejaVuSans-72" x="780.427734"/>
     <use xlink:href="#DejaVuSans-73" x="821.541016"/>
     <use xlink:href="#DejaVuSans-74" x="873.640625"/>
     <use xlink:href="#DejaVuSans-20" x="912.849609"/>
     <use xlink:href="#DejaVuSans-31" x="944.636719"/>
     <use xlink:href="#DejaVuSans-36" x="1008.259766"/>
     <use xlink:href="#DejaVuSans-38" x="1071.882812"/>
     <use xlink:href="#DejaVuSans-20" x="1135.505859"/>
     <use xlink:href="#DejaVuSans-73" x="1167.292969"/>
     <use xlink:href="#DejaVuSans-74" x="1219.392578"/>
     <use xlink:href="#DejaVuSans-65" x="1258.601562"/>
     <use xlink:href="#DejaVuSans-70" x="1320.125"/>
     <use xlink:href="#DejaVuSans-73" x="1383.601562"/>
     <use xlink:href="#DejaVuSans-29" x="1435.701172"/>
    </g>
   </g>
  </g>
  <g id="axes_3">
   <g id="patch_12">
    <path d="M 42.828125 587.32 
L 501.308125 587.32 
L 501.308125 357.36 
L 42.828125 357.36 
z
" style="fill: #ffffff"/>
   </g>
   <g id="matplotlib.axis_5">
    <g id="xtick_19">
     <g id="line2d_69">
      <path d="M 42.828125 587.32 
L 42.828125 357.36 
" clip-path="url(#p1c1d4d1a37)" style="fill: none; stroke: #b0b0b0; stroke-opacity: 0.25; stroke-width: 0.8; stroke-linecap: square"/>
     </g>
     <g id="line2d_70">
      <g>
       <use xlink:href="#ma6e5ced265" x="42.828125" y="587.32" style="stroke: #000000; stroke-width: 0.8"/>
      </g>
     </g>
     <g id="text_38">
      <!-- 0 -->
      <g transform="translate(39.646875 601.918437) scale(0.1 -0.1)">
       <use xlink:href="#DejaVuSans-30"/>
      </g>
     </g>
    </g>
    <g id="xtick_20">
     <g id="line2d_71">
      <path d="M 97.735909 587.32 
L 97.735909 357.36 
" clip-path="url(#p1c1d4d1a37)" style="fill: none; stroke: #b0b0b0; stroke-opacity: 0.25; stroke-width: 0.8; stroke-linecap: square"/>
     </g>
     <g id="line2d_72">
      <g>
       <use xlink:href="#ma6e5ced265" x="97.735909" y="587.32" style="stroke: #000000; stroke-width: 0.8"/>
      </g>
     </g>
     <g id="text_39">
      <!-- 20 -->
      <g transform="translate(91.373409 601.918437) scale(0.1 -0.1)">
       <use xlink:href="#DejaVuSans-32"/>
       <use xlink:href="#DejaVuSans-30" x="63.623047"/>
      </g>
     </g>
    </g>
    <g id="xtick_21">
     <g id="line2d_73">
      <path d="M 152.643694 587.32 
L 152.643694 357.36 
" clip-path="url(#p1c1d4d1a37)" style="fill: none; stroke: #b0b0b0; stroke-opacity: 0.25; stroke-width: 0.8; stroke-linecap: square"/>
     </g>
     <g id="line2d_74">
      <g>
       <use xlink:href="#ma6e5ced265" x="152.643694" y="587.32" style="stroke: #000000; stroke-width: 0.8"/>
      </g>
     </g>
     <g id="text_40">
      <!-- 40 -->
      <g transform="translate(146.281194 601.918437) scale(0.1 -0.1)">
       <use xlink:href="#DejaVuSans-34"/>
       <use xlink:href="#DejaVuSans-30" x="63.623047"/>
      </g>
     </g>
    </g>
    <g id="xtick_22">
     <g id="line2d_75">
      <path d="M 207.551478 587.32 
L 207.551478 357.36 
" clip-path="url(#p1c1d4d1a37)" style="fill: none; stroke: #b0b0b0; stroke-opacity: 0.25; stroke-width: 0.8; stroke-linecap: square"/>
     </g>
     <g id="line2d_76">
      <g>
       <use xlink:href="#ma6e5ced265" x="207.551478" y="587.32" style="stroke: #000000; stroke-width: 0.8"/>
      </g>
     </g>
     <g id="text_41">
      <!-- 60 -->
      <g transform="translate(201.188978 601.918437) scale(0.1 -0.1)">
       <use xlink:href="#DejaVuSans-36"/>
       <use xlink:href="#DejaVuSans-30" x="63.623047"/>
      </g>
     </g>
    </g>
    <g id="xtick_23">
     <g id="line2d_77">
      <path d="M 262.459263 587.32 
L 262.459263 357.36 
" clip-path="url(#p1c1d4d1a37)" style="fill: none; stroke: #b0b0b0; stroke-opacity: 0.25; stroke-width: 0.8; stroke-linecap: square"/>
     </g>
     <g id="line2d_78">
      <g>
       <use xlink:href="#ma6e5ced265" x="262.459263" y="587.32" style="stroke: #000000; stroke-width: 0.8"/>
      </g>
     </g>
     <g id="text_42">
      <!-- 80 -->
      <g transform="translate(256.096763 601.918437) scale(0.1 -0.1)">
       <use xlink:href="#DejaVuSans-38"/>
       <use xlink:href="#DejaVuSans-30" x="63.623047"/>
      </g>
     </g>
    </g>
    <g id="xtick_24">
     <g id="line2d_79">
      <path d="M 317.367047 587.32 
L 317.367047 357.36 
" clip-path="url(#p1c1d4d1a37)" style="fill: none; stroke: #b0b0b0; stroke-opacity: 0.25; stroke-width: 0.8; stroke-linecap: square"/>
     </g>
     <g id="line2d_80">
      <g>
       <use xlink:href="#ma6e5ced265" x="317.367047" y="587.32" style="stroke: #000000; stroke-width: 0.8"/>
      </g>
     </g>
     <g id="text_43">
      <!-- 100 -->
      <g transform="translate(307.823297 601.918437) scale(0.1 -0.1)">
       <use xlink:href="#DejaVuSans-31"/>
       <use xlink:href="#DejaVuSans-30" x="63.623047"/>
       <use xlink:href="#DejaVuSans-30" x="127.246094"/>
      </g>
     </g>
    </g>
    <g id="xtick_25">
     <g id="line2d_81">
      <path d="M 372.274832 587.32 
L 372.274832 357.36 
" clip-path="url(#p1c1d4d1a37)" style="fill: none; stroke: #b0b0b0; stroke-opacity: 0.25; stroke-width: 0.8; stroke-linecap: square"/>
     </g>
     <g id="line2d_82">
      <g>
       <use xlink:href="#ma6e5ced265" x="372.274832" y="587.32" style="stroke: #000000; stroke-width: 0.8"/>
      </g>
     </g>
     <g id="text_44">
      <!-- 120 -->
      <g transform="translate(362.731082 601.918437) scale(0.1 -0.1)">
       <use xlink:href="#DejaVuSans-31"/>
       <use xlink:href="#DejaVuSans-32" x="63.623047"/>
       <use xlink:href="#DejaVuSans-30" x="127.246094"/>
      </g>
     </g>
    </g>
    <g id="xtick_26">
     <g id="line2d_83">
      <path d="M 427.182616 587.32 
L 427.182616 357.36 
" clip-path="url(#p1c1d4d1a37)" style="fill: none; stroke: #b0b0b0; stroke-opacity: 0.25; stroke-width: 0.8; stroke-linecap: square"/>
     </g>
     <g id="line2d_84">
      <g>
       <use xlink:href="#ma6e5ced265" x="427.182616" y="587.32" style="stroke: #000000; stroke-width: 0.8"/>
      </g>
     </g>
     <g id="text_45">
      <!-- 140 -->
      <g transform="translate(417.638866 601.918437) scale(0.1 -0.1)">
       <use xlink:href="#DejaVuSans-31"/>
       <use xlink:href="#DejaVuSans-34" x="63.623047"/>
       <use xlink:href="#DejaVuSans-30" x="127.246094"/>
      </g>
     </g>
    </g>
    <g id="xtick_27">
     <g id="line2d_85">
      <path d="M 482.0904 587.32 
L 482.0904 357.36 
" clip-path="url(#p1c1d4d1a37)" style="fill: none; stroke: #b0b0b0; stroke-opacity: 0.25; stroke-width: 0.8; stroke-linecap: square"/>
     </g>
     <g id="line2d_86">
      <g>
       <use xlink:href="#ma6e5ced265" x="482.0904" y="587.32" style="stroke: #000000; stroke-width: 0.8"/>
      </g>
     </g>
     <g id="text_46">
      <!-- 160 -->
      <g transform="translate(472.54665 601.918437) scale(0.1 -0.1)">
       <use xlink:href="#DejaVuSans-31"/>
       <use xlink:href="#DejaVuSans-36" x="63.623047"/>
       <use xlink:href="#DejaVuSans-30" x="127.246094"/>
      </g>
     </g>
    </g>
    <g id="text_47">
     <!-- Time step -->
     <g transform="translate(247.429844 615.596562) scale(0.1 -0.1)">
      <use xlink:href="#DejaVuSans-54"/>
      <use xlink:href="#DejaVuSans-69" x="57.958984"/>
      <use xlink:href="#DejaVuSans-6d" x="85.742188"/>
      <use xlink:href="#DejaVuSans-65" x="183.154297"/>
      <use xlink:href="#DejaVuSans-20" x="244.677734"/>
      <use xlink:href="#DejaVuSans-73" x="276.464844"/>
      <use xlink:href="#DejaVuSans-74" x="328.564453"/>
      <use xlink:href="#DejaVuSans-65" x="367.773438"/>
      <use xlink:href="#DejaVuSans-70" x="429.296875"/>
     </g>
    </g>
   </g>
   <g id="matplotlib.axis_6">
    <g id="ytick_16">
     <g id="line2d_87">
      <path d="M 42.828125 576.867273 
L 501.308125 576.867273 
" clip-path="url(#p1c1d4d1a37)" style="fill: none; stroke: #b0b0b0; stroke-opacity: 0.25; stroke-width: 0.8; stroke-linecap: square"/>
     </g>
     <g id="line2d_88">
      <g>
       <use xlink:href="#m65ea3abb11" x="42.828125" y="576.867273" style="stroke: #000000; stroke-width: 0.8"/>
      </g>
     </g>
     <g id="text_48">
      <!-- 0.0 -->
      <g transform="translate(19.925 580.666491) scale(0.1 -0.1)">
       <use xlink:href="#DejaVuSans-30"/>
       <use xlink:href="#DejaVuSans-2e" x="63.623047"/>
       <use xlink:href="#DejaVuSans-30" x="95.410156"/>
      </g>
     </g>
    </g>
    <g id="ytick_17">
     <g id="line2d_89">
      <path d="M 42.828125 546.444228 
L 501.308125 546.444228 
" clip-path="url(#p1c1d4d1a37)" style="fill: none; stroke: #b0b0b0; stroke-opacity: 0.25; stroke-width: 0.8; stroke-linecap: square"/>
     </g>
     <g id="line2d_90">
      <g>
       <use xlink:href="#m65ea3abb11" x="42.828125" y="546.444228" style="stroke: #000000; stroke-width: 0.8"/>
      </g>
     </g>
     <g id="text_49">
      <!-- 0.2 -->
      <g transform="translate(19.925 550.243447) scale(0.1 -0.1)">
       <use xlink:href="#DejaVuSans-30"/>
       <use xlink:href="#DejaVuSans-2e" x="63.623047"/>
       <use xlink:href="#DejaVuSans-32" x="95.410156"/>
      </g>
     </g>
    </g>
    <g id="ytick_18">
     <g id="line2d_91">
      <path d="M 42.828125 516.021183 
L 501.308125 516.021183 
" clip-path="url(#p1c1d4d1a37)" style="fill: none; stroke: #b0b0b0; stroke-opacity: 0.25; stroke-width: 0.8; stroke-linecap: square"/>
     </g>
     <g id="line2d_92">
      <g>
       <use xlink:href="#m65ea3abb11" x="42.828125" y="516.021183" style="stroke: #000000; stroke-width: 0.8"/>
      </g>
     </g>
     <g id="text_50">
      <!-- 0.4 -->
      <g transform="translate(19.925 519.820402) scale(0.1 -0.1)">
       <use xlink:href="#DejaVuSans-30"/>
       <use xlink:href="#DejaVuSans-2e" x="63.623047"/>
       <use xlink:href="#DejaVuSans-34" x="95.410156"/>
      </g>
     </g>
    </g>
    <g id="ytick_19">
     <g id="line2d_93">
      <path d="M 42.828125 485.598139 
L 501.308125 485.598139 
" clip-path="url(#p1c1d4d1a37)" style="fill: none; stroke: #b0b0b0; stroke-opacity: 0.25; stroke-width: 0.8; stroke-linecap: square"/>
     </g>
     <g id="line2d_94">
      <g>
       <use xlink:href="#m65ea3abb11" x="42.828125" y="485.598139" style="stroke: #000000; stroke-width: 0.8"/>
      </g>
     </g>
     <g id="text_51">
      <!-- 0.6 -->
      <g transform="translate(19.925 489.397357) scale(0.1 -0.1)">
       <use xlink:href="#DejaVuSans-30"/>
       <use xlink:href="#DejaVuSans-2e" x="63.623047"/>
       <use xlink:href="#DejaVuSans-36" x="95.410156"/>
      </g>
     </g>
    </g>
    <g id="ytick_20">
     <g id="line2d_95">
      <path d="M 42.828125 455.175094 
L 501.308125 455.175094 
" clip-path="url(#p1c1d4d1a37)" style="fill: none; stroke: #b0b0b0; stroke-opacity: 0.25; stroke-width: 0.8; stroke-linecap: square"/>
     </g>
     <g id="line2d_96">
      <g>
       <use xlink:href="#m65ea3abb11" x="42.828125" y="455.175094" style="stroke: #000000; stroke-width: 0.8"/>
      </g>
     </g>
     <g id="text_52">
      <!-- 0.8 -->
      <g transform="translate(19.925 458.974313) scale(0.1 -0.1)">
       <use xlink:href="#DejaVuSans-30"/>
       <use xlink:href="#DejaVuSans-2e" x="63.623047"/>
       <use xlink:href="#DejaVuSans-38" x="95.410156"/>
      </g>
     </g>
    </g>
    <g id="ytick_21">
     <g id="line2d_97">
      <path d="M 42.828125 424.752049 
L 501.308125 424.752049 
" clip-path="url(#p1c1d4d1a37)" style="fill: none; stroke: #b0b0b0; stroke-opacity: 0.25; stroke-width: 0.8; stroke-linecap: square"/>
     </g>
     <g id="line2d_98">
      <g>
       <use xlink:href="#m65ea3abb11" x="42.828125" y="424.752049" style="stroke: #000000; stroke-width: 0.8"/>
      </g>
     </g>
     <g id="text_53">
      <!-- 1.0 -->
      <g transform="translate(19.925 428.551268) scale(0.1 -0.1)">
       <use xlink:href="#DejaVuSans-31"/>
       <use xlink:href="#DejaVuSans-2e" x="63.623047"/>
       <use xlink:href="#DejaVuSans-30" x="95.410156"/>
      </g>
     </g>
    </g>
    <g id="ytick_22">
     <g id="line2d_99">
      <path d="M 42.828125 394.329004 
L 501.308125 394.329004 
" clip-path="url(#p1c1d4d1a37)" style="fill: none; stroke: #b0b0b0; stroke-opacity: 0.25; stroke-width: 0.8; stroke-linecap: square"/>
     </g>
     <g id="line2d_100">
      <g>
       <use xlink:href="#m65ea3abb11" x="42.828125" y="394.329004" style="stroke: #000000; stroke-width: 0.8"/>
      </g>
     </g>
     <g id="text_54">
      <!-- 1.2 -->
      <g transform="translate(19.925 398.128223) scale(0.1 -0.1)">
       <use xlink:href="#DejaVuSans-31"/>
       <use xlink:href="#DejaVuSans-2e" x="63.623047"/>
       <use xlink:href="#DejaVuSans-32" x="95.410156"/>
      </g>
     </g>
    </g>
    <g id="ytick_23">
     <g id="line2d_101">
      <path d="M 42.828125 363.90596 
L 501.308125 363.90596 
" clip-path="url(#p1c1d4d1a37)" style="fill: none; stroke: #b0b0b0; stroke-opacity: 0.25; stroke-width: 0.8; stroke-linecap: square"/>
     </g>
     <g id="line2d_102">
      <g>
       <use xlink:href="#m65ea3abb11" x="42.828125" y="363.90596" style="stroke: #000000; stroke-width: 0.8"/>
      </g>
     </g>
     <g id="text_55">
      <!-- 1.4 -->
      <g transform="translate(19.925 367.705178) scale(0.1 -0.1)">
       <use xlink:href="#DejaVuSans-31"/>
       <use xlink:href="#DejaVuSans-2e" x="63.623047"/>
       <use xlink:href="#DejaVuSans-34" x="95.410156"/>
      </g>
     </g>
    </g>
   </g>
   <g id="line2d_103">
    <path d="M 42.828125 576.867273 
L 56.555071 576.867273 
L 59.30046 569.160705 
L 62.04585 549.090261 
L 64.791239 509.335715 
L 67.536628 454.674914 
L 70.282017 405.004344 
L 73.027406 373.357894 
L 75.772796 368.834843 
L 78.518185 367.812727 
L 81.263574 380.637425 
L 84.008963 408.545009 
L 86.754353 448.667261 
L 92.245131 556.385968 
L 94.99052 576.867273 
L 122.444412 576.867273 
L 125.189802 567.918773 
L 127.935191 535.727262 
L 133.425969 435.076203 
L 136.171359 399.442494 
L 138.916748 379.459651 
L 141.662137 372.616576 
L 144.407526 372.237168 
L 147.152915 384.411597 
L 149.898305 412.07077 
L 152.643694 451.823885 
L 158.134472 556.642723 
L 160.879862 576.867273 
L 188.333754 576.867273 
L 191.079143 566.828064 
L 193.824532 537.288887 
L 199.315311 457.578839 
L 202.0607 413.607098 
L 204.806089 388.0852 
L 207.551478 382.05565 
L 210.296868 392.614833 
L 213.042257 411.587764 
L 215.787646 458.150571 
L 218.533035 495.796034 
L 221.278424 531.50934 
L 224.023814 562.327141 
L 226.769203 576.867273 
L 254.223095 576.867273 
L 256.968484 570.694291 
L 259.713874 553.124332 
L 262.459263 537.922999 
L 265.204652 494.908787 
L 267.950041 479.201589 
L 270.69543 481.838951 
L 273.44082 458.038107 
L 276.186209 460.969939 
L 281.676987 445.427802 
L 284.422376 471.390446 
L 289.913155 557.829885 
L 292.658544 576.867273 
L 320.112436 576.867273 
L 322.857826 567.3308 
L 325.603215 537.059407 
L 328.348604 479.886131 
L 331.093993 433.274091 
L 333.839382 397.531255 
L 336.584772 378.879033 
L 339.330161 373.274026 
L 342.07555 373.731844 
L 344.820939 388.189612 
L 350.311718 455.740151 
L 353.057107 497.532548 
L 355.802496 554.320715 
L 358.547885 576.867273 
L 386.001778 576.867273 
L 388.747167 565.272722 
L 391.492556 532.734792 
L 394.237945 485.463022 
L 396.983335 433.04725 
L 399.728724 397.66693 
L 402.474113 378.916678 
L 405.219502 374.873024 
L 407.964891 373.534931 
L 410.710281 384.775174 
L 413.45567 412.000049 
L 416.201059 449.753497 
L 421.691838 554.631987 
L 424.437227 576.852471 
L 446.400341 576.867273 
L 451.891119 576.867273 
L 454.636508 567.574009 
L 457.381897 539.191824 
L 460.127287 487.482637 
L 462.872676 447.889486 
L 465.618065 413.028275 
L 468.363454 380.563839 
L 471.108844 371.928644 
L 473.854233 376.773674 
L 476.599622 380.267501 
L 479.345011 409.691122 
L 482.0904 451.200799 
L 487.581179 555.511786 
L 490.326568 576.806492 
L 495.817347 576.867273 
L 501.308125 576.867273 
L 501.308125 576.867273 
" clip-path="url(#p1c1d4d1a37)" style="fill: none; stroke: #f59e0b; stroke-width: 2; stroke-linecap: square"/>
   </g>
   <g id="patch_13">
    <path d="M 42.828125 587.32 
L 42.828125 357.36 
" style="fill: none; stroke: #000000; stroke-width: 0.8; stroke-linejoin: miter; stroke-linecap: square"/>
   </g>
   <g id="patch_14">
    <path d="M 501.308125 587.32 
L 501.308125 357.36 
" style="fill: none; stroke: #000000; stroke-width: 0.8; stroke-linejoin: miter; stroke-linecap: square"/>
   </g>
   <g id="patch_15">
    <path d="M 42.828125 587.32 
L 501.308125 587.32 
" style="fill: none; stroke: #000000; stroke-width: 0.8; stroke-linejoin: miter; stroke-linecap: square"/>
   </g>
   <g id="patch_16">
    <path d="M 42.828125 357.36 
L 501.308125 357.36 
" style="fill: none; stroke: #000000; stroke-width: 0.8; stroke-linejoin: miter; stroke-linecap: square"/>
   </g>
   <g id="text_56">
    <!-- Solar Sample (first 168 steps) -->
    <g transform="translate(182.689688 351.36) scale(0.12 -0.12)">
     <use xlink:href="#DejaVuSans-53"/>
     <use xlink:href="#DejaVuSans-6f" x="63.476562"/>
     <use xlink:href="#DejaVuSans-6c" x="124.658203"/>
     <use xlink:href="#DejaVuSans-61" x="152.441406"/>
     <use xlink:href="#DejaVuSans-72" x="213.720703"/>
     <use xlink:href="#DejaVuSans-20" x="254.833984"/>
     <use xlink:href="#DejaVuSans-53" x="286.621094"/>
     <use xlink:href="#DejaVuSans-61" x="350.097656"/>
     <use xlink:href="#DejaVuSans-6d" x="411.376953"/>
     <use xlink:href="#DejaVuSans-70" x="508.789062"/>
     <use xlink:href="#DejaVuSans-6c" x="572.265625"/>
     <use xlink:href="#DejaVuSans-65" x="600.048828"/>
     <use xlink:href="#DejaVuSans-20" x="661.572266"/>
     <use xlink:href="#DejaVuSans-28" x="693.359375"/>
     <use xlink:href="#DejaVuSans-66" x="732.373047"/>
     <use xlink:href="#DejaVuSans-69" x="767.578125"/>
     <use xlink:href="#DejaVuSans-72" x="795.361328"/>
     <use xlink:href="#DejaVuSans-73" x="836.474609"/>
     <use xlink:href="#DejaVuSans-74" x="888.574219"/>
     <use xlink:href="#DejaVuSans-20" x="927.783203"/>
     <use xlink:href="#DejaVuSans-31" x="959.570312"/>
     <use xlink:href="#DejaVuSans-36" x="1023.193359"/>
     <use xlink:href="#DejaVuSans-38" x="1086.816406"/>
     <use xlink:href="#DejaVuSans-20" x="1150.439453"/>
     <use xlink:href="#DejaVuSans-73" x="1182.226562"/>
     <use xlink:href="#DejaVuSans-74" x="1234.326172"/>
     <use xlink:href="#DejaVuSans-65" x="1273.535156"/>
     <use xlink:href="#DejaVuSans-70" x="1335.058594"/>
     <use xlink:href="#DejaVuSans-73" x="1398.535156"/>
     <use xlink:href="#DejaVuSans-29" x="1450.634766"/>
    </g>
   </g>
  </g>
  <g id="axes_4">
   <g id="patch_17">
    <path d="M 535.038125 587.32 
L 993.518125 587.32 
L 993.518125 357.36 
L 535.038125 357.36 
z
" style="fill: #ffffff"/>
   </g>
   <g id="patch_18">
    <path d="M 555.878125 587.32 
L 555.878125 357.36 
L 759.844082 357.36 
L 759.844082 587.32 
z
" clip-path="url(#p489c163272)" style="fill: #bfdbfe; opacity: 0.55; stroke: #bfdbfe; stroke-linejoin: miter"/>
   </g>
   <g id="patch_19">
    <path d="M 768.712168 587.32 
L 768.712168 357.36 
L 972.678125 357.36 
L 972.678125 587.32 
z
" clip-path="url(#p489c163272)" style="fill: #fed7aa; opacity: 0.55; stroke: #fed7aa; stroke-linejoin: miter"/>
   </g>
   <g id="matplotlib.axis_7">
    <g id="xtick_28">
     <g id="line2d_104">
      <path d="M 591.350465 587.32 
L 591.350465 357.36 
" clip-path="url(#p489c163272)" style="fill: none; stroke: #b0b0b0; stroke-opacity: 0.25; stroke-width: 0.8; stroke-linecap: square"/>
     </g>
     <g id="line2d_105">
      <g>
       <use xlink:href="#ma6e5ced265" x="591.350465" y="587.32" style="stroke: #000000; stroke-width: 0.8"/>
      </g>
     </g>
     <g id="text_57">
      <!-- 100 -->
      <g transform="translate(581.806715 601.918437) scale(0.1 -0.1)">
       <use xlink:href="#DejaVuSans-31"/>
       <use xlink:href="#DejaVuSans-30" x="63.623047"/>
       <use xlink:href="#DejaVuSans-30" x="127.246094"/>
      </g>
     </g>
    </g>
    <g id="xtick_29">
     <g id="line2d_106">
      <path d="M 680.031316 587.32 
L 680.031316 357.36 
" clip-path="url(#p489c163272)" style="fill: none; stroke: #b0b0b0; stroke-opacity: 0.25; stroke-width: 0.8; stroke-linecap: square"/>
     </g>
     <g id="line2d_107">
      <g>
       <use xlink:href="#ma6e5ced265" x="680.031316" y="587.32" style="stroke: #000000; stroke-width: 0.8"/>
      </g>
     </g>
     <g id="text_58">
      <!-- 110 -->
      <g transform="translate(670.487566 601.918437) scale(0.1 -0.1)">
       <use xlink:href="#DejaVuSans-31"/>
       <use xlink:href="#DejaVuSans-31" x="63.623047"/>
       <use xlink:href="#DejaVuSans-30" x="127.246094"/>
      </g>
     </g>
    </g>
    <g id="xtick_30">
     <g id="line2d_108">
      <path d="M 768.712168 587.32 
L 768.712168 357.36 
" clip-path="url(#p489c163272)" style="fill: none; stroke: #b0b0b0; stroke-opacity: 0.25; stroke-width: 0.8; stroke-linecap: square"/>
     </g>
     <g id="line2d_109">
      <g>
       <use xlink:href="#ma6e5ced265" x="768.712168" y="587.32" style="stroke: #000000; stroke-width: 0.8"/>
      </g>
     </g>
     <g id="text_59">
      <!-- 120 -->
      <g transform="translate(759.168418 601.918437) scale(0.1 -0.1)">
       <use xlink:href="#DejaVuSans-31"/>
       <use xlink:href="#DejaVuSans-32" x="63.623047"/>
       <use xlink:href="#DejaVuSans-30" x="127.246094"/>
      </g>
     </g>
    </g>
    <g id="xtick_31">
     <g id="line2d_110">
      <path d="M 857.393019 587.32 
L 857.393019 357.36 
" clip-path="url(#p489c163272)" style="fill: none; stroke: #b0b0b0; stroke-opacity: 0.25; stroke-width: 0.8; stroke-linecap: square"/>
     </g>
     <g id="line2d_111">
      <g>
       <use xlink:href="#ma6e5ced265" x="857.393019" y="587.32" style="stroke: #000000; stroke-width: 0.8"/>
      </g>
     </g>
     <g id="text_60">
      <!-- 130 -->
      <g transform="translate(847.849269 601.918437) scale(0.1 -0.1)">
       <use xlink:href="#DejaVuSans-31"/>
       <use xlink:href="#DejaVuSans-33" x="63.623047"/>
       <use xlink:href="#DejaVuSans-30" x="127.246094"/>
      </g>
     </g>
    </g>
    <g id="xtick_32">
     <g id="line2d_112">
      <path d="M 946.07387 587.32 
L 946.07387 357.36 
" clip-path="url(#p489c163272)" style="fill: none; stroke: #b0b0b0; stroke-opacity: 0.25; stroke-width: 0.8; stroke-linecap: square"/>
     </g>
     <g id="line2d_113">
      <g>
       <use xlink:href="#ma6e5ced265" x="946.07387" y="587.32" style="stroke: #000000; stroke-width: 0.8"/>
      </g>
     </g>
     <g id="text_61">
      <!-- 140 -->
      <g transform="translate(936.53012 601.918437) scale(0.1 -0.1)">
       <use xlink:href="#DejaVuSans-31"/>
       <use xlink:href="#DejaVuSans-34" x="63.623047"/>
       <use xlink:href="#DejaVuSans-30" x="127.246094"/>
      </g>
     </g>
    </g>
    <g id="text_62">
     <!-- Global time step -->
     <g transform="translate(723.038281 615.596562) scale(0.1 -0.1)">
      <defs>
       <path id="DejaVuSans-47" d="M 3809 666 
L 3809 1919 
L 2778 1919 
L 2778 2438 
L 4434 2438 
L 4434 434 
Q 4069 175 3628 42 
Q 3188 -91 2688 -91 
Q 1594 -91 976 548 
Q 359 1188 359 2328 
Q 359 3472 976 4111 
Q 1594 4750 2688 4750 
Q 3144 4750 3555 4637 
Q 3966 4525 4313 4306 
L 4313 3634 
Q 3963 3931 3569 4081 
Q 3175 4231 2741 4231 
Q 1884 4231 1454 3753 
Q 1025 3275 1025 2328 
Q 1025 1384 1454 906 
Q 1884 428 2741 428 
Q 3075 428 3337 486 
Q 3600 544 3809 666 
z
" transform="scale(0.015625)"/>
       <path id="DejaVuSans-62" d="M 3116 1747 
Q 3116 2381 2855 2742 
Q 2594 3103 2138 3103 
Q 1681 3103 1420 2742 
Q 1159 2381 1159 1747 
Q 1159 1113 1420 752 
Q 1681 391 2138 391 
Q 2594 391 2855 752 
Q 3116 1113 3116 1747 
z
M 1159 2969 
Q 1341 3281 1617 3432 
Q 1894 3584 2278 3584 
Q 2916 3584 3314 3078 
Q 3713 2572 3713 1747 
Q 3713 922 3314 415 
Q 2916 -91 2278 -91 
Q 1894 -91 1617 61 
Q 1341 213 1159 525 
L 1159 0 
L 581 0 
L 581 4863 
L 1159 4863 
L 1159 2969 
z
" transform="scale(0.015625)"/>
      </defs>
      <use xlink:href="#DejaVuSans-47"/>
      <use xlink:href="#DejaVuSans-6c" x="77.490234"/>
      <use xlink:href="#DejaVuSans-6f" x="105.273438"/>
      <use xlink:href="#DejaVuSans-62" x="166.455078"/>
      <use xlink:href="#DejaVuSans-61" x="229.931641"/>
      <use xlink:href="#DejaVuSans-6c" x="291.210938"/>
      <use xlink:href="#DejaVuSans-20" x="318.994141"/>
      <use xlink:href="#DejaVuSans-74" x="350.78125"/>
      <use xlink:href="#DejaVuSans-69" x="389.990234"/>
      <use xlink:href="#DejaVuSans-6d" x="417.773438"/>
      <use xlink:href="#DejaVuSans-65" x="515.185547"/>
      <use xlink:href="#DejaVuSans-20" x="576.708984"/>
      <use xlink:href="#DejaVuSans-73" x="608.496094"/>
      <use xlink:href="#DejaVuSans-74" x="660.595703"/>
      <use xlink:href="#DejaVuSans-65" x="699.804688"/>
      <use xlink:href="#DejaVuSans-70" x="761.328125"/>
     </g>
    </g>
   </g>
   <g id="matplotlib.axis_8">
    <g id="ytick_24">
     <g id="line2d_114">
      <path d="M 535.038125 576.867273 
L 993.518125 576.867273 
" clip-path="url(#p489c163272)" style="fill: none; stroke: #b0b0b0; stroke-opacity: 0.25; stroke-width: 0.8; stroke-linecap: square"/>
     </g>
     <g id="line2d_115">
      <g>
       <use xlink:href="#m65ea3abb11" x="535.038125" y="576.867273" style="stroke: #000000; stroke-width: 0.8"/>
      </g>
     </g>
     <g id="text_63">
      <!-- 0 -->
      <g transform="translate(521.675625 580.666491) scale(0.1 -0.1)">
       <use xlink:href="#DejaVuSans-30"/>
      </g>
     </g>
    </g>
    <g id="ytick_25">
     <g id="line2d_116">
      <path d="M 535.038125 527.645899 
L 993.518125 527.645899 
" clip-path="url(#p489c163272)" style="fill: none; stroke: #b0b0b0; stroke-opacity: 0.25; stroke-width: 0.8; stroke-linecap: square"/>
     </g>
     <g id="line2d_117">
      <g>
       <use xlink:href="#m65ea3abb11" x="535.038125" y="527.645899" style="stroke: #000000; stroke-width: 0.8"/>
      </g>
     </g>
     <g id="text_64">
      <!-- 1 -->
      <g transform="translate(521.675625 531.445118) scale(0.1 -0.1)">
       <use xlink:href="#DejaVuSans-31"/>
      </g>
     </g>
    </g>
    <g id="ytick_26">
     <g id="line2d_118">
      <path d="M 535.038125 478.424525 
L 993.518125 478.424525 
" clip-path="url(#p489c163272)" style="fill: none; stroke: #b0b0b0; stroke-opacity: 0.25; stroke-width: 0.8; stroke-linecap: square"/>
     </g>
     <g id="line2d_119">
      <g>
       <use xlink:href="#m65ea3abb11" x="535.038125" y="478.424525" style="stroke: #000000; stroke-width: 0.8"/>
      </g>
     </g>
     <g id="text_65">
      <!-- 2 -->
      <g transform="translate(521.675625 482.223744) scale(0.1 -0.1)">
       <use xlink:href="#DejaVuSans-32"/>
      </g>
     </g>
    </g>
    <g id="ytick_27">
     <g id="line2d_120">
      <path d="M 535.038125 429.203151 
L 993.518125 429.203151 
" clip-path="url(#p489c163272)" style="fill: none; stroke: #b0b0b0; stroke-opacity: 0.25; stroke-width: 0.8; stroke-linecap: square"/>
     </g>
     <g id="line2d_121">
      <g>
       <use xlink:href="#m65ea3abb11" x="535.038125" y="429.203151" style="stroke: #000000; stroke-width: 0.8"/>
      </g>
     </g>
     <g id="text_66">
      <!-- 3 -->
      <g transform="translate(521.675625 433.00237) scale(0.1 -0.1)">
       <use xlink:href="#DejaVuSans-33"/>
      </g>
     </g>
    </g>
    <g id="ytick_28">
     <g id="line2d_122">
      <path d="M 535.038125 379.981777 
L 993.518125 379.981777 
" clip-path="url(#p489c163272)" style="fill: none; stroke: #b0b0b0; stroke-opacity: 0.25; stroke-width: 0.8; stroke-linecap: square"/>
     </g>
     <g id="line2d_123">
      <g>
       <use xlink:href="#m65ea3abb11" x="535.038125" y="379.981777" style="stroke: #000000; stroke-width: 0.8"/>
      </g>
     </g>
     <g id="text_67">
      <!-- 4 -->
      <g transform="translate(521.675625 383.780996) scale(0.1 -0.1)">
       <use xlink:href="#DejaVuSans-34"/>
      </g>
     </g>
    </g>
   </g>
   <g id="line2d_124">
    <path d="M 555.878125 575.443298 
L 564.74621 575.443298 
L 573.614295 575.443298 
L 582.48238 575.443298 
L 591.350465 575.443298 
L 600.218551 575.443298 
L 609.086636 575.443298 
L 617.954721 575.43247 
L 626.822806 575.43247 
L 635.690891 575.43247 
L 644.558976 575.43247 
L 653.427061 575.43247 
L 662.295146 575.43247 
L 671.163231 575.43247 
L 680.031316 575.43247 
L 688.899402 573.979455 
L 697.767487 573.979455 
L 706.635572 573.979455 
L 715.503657 575.43247 
L 724.371742 575.43247 
L 733.239827 575.43247 
L 742.107912 575.43247 
L 750.975997 575.443298 
L 759.844082 575.443298 
L 768.712168 575.443298 
L 777.580253 575.443298 
L 786.448338 575.443298 
L 795.316423 575.443298 
L 804.184508 575.443298 
L 813.052593 575.443298 
L 821.920678 575.443298 
L 830.788763 575.43247 
L 839.656848 575.43247 
L 848.524934 575.43247 
L 857.393019 575.43247 
L 866.261104 575.43247 
L 875.129189 575.43247 
L 883.997274 575.43247 
L 892.865359 575.43247 
L 901.733444 573.979455 
L 910.601529 573.979455 
L 919.469614 573.979455 
L 928.337699 575.43247 
L 937.205785 575.43247 
L 946.07387 575.43247 
L 954.941955 575.43247 
L 963.81004 575.443298 
L 972.678125 575.443298 
" clip-path="url(#p489c163272)" style="fill: none; stroke: #2563eb; stroke-width: 2; stroke-linecap: square"/>
   </g>
   <g id="line2d_125">
    <path d="M 555.878125 560.554206 
L 564.74621 561.187781 
L 573.614295 561.236927 
L 582.48238 561.177796 
L 591.350465 560.689782 
L 600.218551 558.728837 
L 609.086636 556.904343 
L 617.954721 552.586355 
L 626.822806 546.665885 
L 635.690891 540.924919 
L 644.558976 542.23992 
L 653.427061 543.098662 
L 662.295146 534.867148 
L 671.163231 543.261028 
L 680.031316 547.645101 
L 688.899402 548.345193 
L 697.767487 550.921336 
L 706.635572 536.525867 
L 715.503657 547.846185 
L 724.371742 548.668647 
L 733.239827 545.98554 
L 742.107912 557.271798 
L 750.975997 553.903072 
L 759.844082 560.922235 
L 768.712168 561.056975 
L 777.580253 561.15485 
L 786.448338 561.236927 
L 795.316423 561.533415 
L 804.184508 560.689782 
L 813.052593 550.301818 
L 821.920678 367.812727 
L 830.788763 548.620321 
L 839.656848 541.859204 
L 848.524934 538.711198 
L 857.393019 538.537289 
L 866.261104 543.098662 
L 875.129189 543.066891 
L 883.997274 547.439739 
L 892.865359 549.65738 
L 901.733444 548.345193 
L 910.601529 551.837894 
L 919.469614 551.844219 
L 928.337699 544.498036 
L 937.205785 536.129868 
L 946.07387 433.61305 
L 954.941955 551.312438 
L 963.81004 559.62751 
L 972.678125 560.922235 
" clip-path="url(#p489c163272)" style="fill: none; stroke: #dc2626; stroke-width: 2; stroke-linecap: square"/>
   </g>
   <g id="line2d_126">
    <path d="M 555.878125 576.867273 
L 564.74621 576.867273 
L 573.614295 576.867273 
L 582.48238 576.867273 
L 591.350465 576.867273 
L 600.218551 576.867273 
L 609.086636 573.781465 
L 617.954721 563.986262 
L 626.822806 545.48616 
L 635.690891 530.403457 
L 644.558976 518.837807 
L 653.427061 512.802329 
L 662.295146 510.988664 
L 671.163231 511.136804 
L 680.031316 515.815042 
L 688.899402 526.55792 
L 697.767487 537.673015 
L 706.635572 551.196179 
L 715.503657 569.571668 
L 724.371742 576.867273 
L 733.239827 576.867273 
L 742.107912 576.867273 
L 750.975997 576.867273 
L 759.844082 576.867273 
L 768.712168 576.867273 
L 777.580253 576.867273 
L 786.448338 576.867273 
L 795.316423 576.867273 
L 804.184508 576.867273 
L 813.052593 576.867273 
L 821.920678 573.115513 
L 830.788763 562.586905 
L 839.656848 547.290727 
L 848.524934 530.330056 
L 857.393019 518.881708 
L 866.261104 512.814511 
L 875.129189 511.506067 
L 883.997274 511.073088 
L 892.865359 514.7102 
L 901.733444 523.519612 
L 910.601529 535.735856 
L 919.469614 552.378652 
L 928.337699 569.672389 
L 937.205785 576.862483 
L 946.07387 576.867273 
L 954.941955 576.867273 
L 963.81004 576.867273 
L 972.678125 576.867273 
" clip-path="url(#p489c163272)" style="fill: none; stroke: #f59e0b; stroke-width: 2; stroke-linecap: square"/>
   </g>
   <g id="line2d_127">
    <path d="M 764.278125 587.32 
L 764.278125 357.36 
" clip-path="url(#p489c163272)" style="fill: none; stroke-dasharray: 5.55,2.4; stroke-dashoffset: 0; stroke: #111827; stroke-width: 1.5"/>
   </g>
   <g id="patch_20">
    <path d="M 535.038125 587.32 
L 535.038125 357.36 
" style="fill: none; stroke: #000000; stroke-width: 0.8; stroke-linejoin: miter; stroke-linecap: square"/>
   </g>
   <g id="patch_21">
    <path d="M 993.518125 587.32 
L 993.518125 357.36 
" style="fill: none; stroke: #000000; stroke-width: 0.8; stroke-linejoin: miter; stroke-linecap: square"/>
   </g>
   <g id="patch_22">
    <path d="M 535.038125 587.32 
L 993.518125 587.32 
" style="fill: none; stroke: #000000; stroke-width: 0.8; stroke-linejoin: miter; stroke-linecap: square"/>
   </g>
   <g id="patch_23">
    <path d="M 535.038125 357.36 
L 993.518125 357.36 
" style="fill: none; stroke: #000000; stroke-width: 0.8; stroke-linejoin: miter; stroke-linecap: square"/>
   </g>
   <g id="text_68">
    <!-- Example Sliding-Window Training Sample -->
    <g transform="translate(640.547813 351.36) scale(0.12 -0.12)">
     <defs>
      <path id="DejaVuSans-45" d="M 628 4666 
L 3578 4666 
L 3578 4134 
L 1259 4134 
L 1259 2753 
L 3481 2753 
L 3481 2222 
L 1259 2222 
L 1259 531 
L 3634 531 
L 3634 0 
L 628 0 
L 628 4666 
z
" transform="scale(0.015625)"/>
      <path id="DejaVuSans-78" d="M 3513 3500 
L 2247 1797 
L 3578 0 
L 2900 0 
L 1881 1375 
L 863 0 
L 184 0 
L 1544 1831 
L 300 3500 
L 978 3500 
L 1906 2253 
L 2834 3500 
L 3513 3500 
z
" transform="scale(0.015625)"/>
      <path id="DejaVuSans-6e" d="M 3513 2113 
L 3513 0 
L 2938 0 
L 2938 2094 
Q 2938 2591 2744 2837 
Q 2550 3084 2163 3084 
Q 1697 3084 1428 2787 
Q 1159 2491 1159 1978 
L 1159 0 
L 581 0 
L 581 3500 
L 1159 3500 
L 1159 2956 
Q 1366 3272 1645 3428 
Q 1925 3584 2291 3584 
Q 2894 3584 3203 3211 
Q 3513 2838 3513 2113 
z
" transform="scale(0.015625)"/>
      <path id="DejaVuSans-67" d="M 2906 1791 
Q 2906 2416 2648 2759 
Q 2391 3103 1925 3103 
Q 1463 3103 1205 2759 
Q 947 2416 947 1791 
Q 947 1169 1205 825 
Q 1463 481 1925 481 
Q 2391 481 2648 825 
Q 2906 1169 2906 1791 
z
M 3481 434 
Q 3481 -459 3084 -895 
Q 2688 -1331 1869 -1331 
Q 1566 -1331 1297 -1286 
Q 1028 -1241 775 -1147 
L 775 -588 
Q 1028 -725 1275 -790 
Q 1522 -856 1778 -856 
Q 2344 -856 2625 -561 
Q 2906 -266 2906 331 
L 2906 616 
Q 2728 306 2450 153 
Q 2172 0 1784 0 
Q 1141 0 747 490 
Q 353 981 353 1791 
Q 353 2603 747 3093 
Q 1141 3584 1784 3584 
Q 2172 3584 2450 3431 
Q 2728 3278 2906 2969 
L 2906 3500 
L 3481 3500 
L 3481 434 
z
" transform="scale(0.015625)"/>
      <path id="DejaVuSans-2d" d="M 313 2009 
L 1997 2009 
L 1997 1497 
L 313 1497 
L 313 2009 
z
" transform="scale(0.015625)"/>
      <path id="DejaVuSans-57" d="M 213 4666 
L 850 4666 
L 1831 722 
L 2809 4666 
L 3519 4666 
L 4500 722 
L 5478 4666 
L 6119 4666 
L 4947 0 
L 4153 0 
L 3169 4050 
L 2175 0 
L 1381 0 
L 213 4666 
z
" transform="scale(0.015625)"/>
      <path id="DejaVuSans-77" d="M 269 3500 
L 844 3500 
L 1563 769 
L 2278 3500 
L 2956 3500 
L 3675 769 
L 4391 3500 
L 4966 3500 
L 4050 0 
L 3372 0 
L 2619 2869 
L 1863 0 
L 1184 0 
L 269 3500 
z
" transform="scale(0.015625)"/>
     </defs>
     <use xlink:href="#DejaVuSans-45"/>
     <use xlink:href="#DejaVuSans-78" x="63.183594"/>
     <use xlink:href="#DejaVuSans-61" x="122.363281"/>
     <use xlink:href="#DejaVuSans-6d" x="183.642578"/>
     <use xlink:href="#DejaVuSans-70" x="281.054688"/>
     <use xlink:href="#DejaVuSans-6c" x="344.53125"/>
     <use xlink:href="#DejaVuSans-65" x="372.314453"/>
     <use xlink:href="#DejaVuSans-20" x="433.837891"/>
     <use xlink:href="#DejaVuSans-53" x="465.625"/>
     <use xlink:href="#DejaVuSans-6c" x="529.101562"/>
     <use xlink:href="#DejaVuSans-69" x="556.884766"/>
     <use xlink:href="#DejaVuSans-64" x="584.667969"/>
     <use xlink:href="#DejaVuSans-69" x="648.144531"/>
     <use xlink:href="#DejaVuSans-6e" x="675.927734"/>
     <use xlink:href="#DejaVuSans-67" x="739.306641"/>
     <use xlink:href="#DejaVuSans-2d" x="802.783203"/>
     <use xlink:href="#DejaVuSans-57" x="834.867188"/>
     <use xlink:href="#DejaVuSans-69" x="931.494141"/>
     <use xlink:href="#DejaVuSans-6e" x="959.277344"/>
     <use xlink:href="#DejaVuSans-64" x="1022.65625"/>
     <use xlink:href="#DejaVuSans-6f" x="1086.132812"/>
     <use xlink:href="#DejaVuSans-77" x="1147.314453"/>
     <use xlink:href="#DejaVuSans-20" x="1229.101562"/>
     <use xlink:href="#DejaVuSans-54" x="1260.888672"/>
     <use xlink:href="#DejaVuSans-72" x="1307.222656"/>
     <use xlink:href="#DejaVuSans-61" x="1348.335938"/>
     <use xlink:href="#DejaVuSans-69" x="1409.615234"/>
     <use xlink:href="#DejaVuSans-6e" x="1437.398438"/>
     <use xlink:href="#DejaVuSans-69" x="1500.777344"/>
     <use xlink:href="#DejaVuSans-6e" x="1528.560547"/>
     <use xlink:href="#DejaVuSans-67" x="1591.939453"/>
     <use xlink:href="#DejaVuSans-20" x="1655.416016"/>
     <use xlink:href="#DejaVuSans-53" x="1687.203125"/>
     <use xlink:href="#DejaVuSans-61" x="1750.679688"/>
     <use xlink:href="#DejaVuSans-6d" x="1811.958984"/>
     <use xlink:href="#DejaVuSans-70" x="1909.371094"/>
     <use xlink:href="#DejaVuSans-6c" x="1972.847656"/>
     <use xlink:href="#DejaVuSans-65" x="2000.630859"/>
    </g>
   </g>
   <g id="legend_1">
    <g id="patch_24">
     <path d="M 812.068281 404.190937 
L 987.218125 404.190937 
Q 989.018125 404.190937 989.018125 402.390937 
L 989.018125 363.66 
Q 989.018125 361.86 987.218125 361.86 
L 812.068281 361.86 
Q 810.268281 361.86 810.268281 363.66 
L 810.268281 402.390937 
Q 810.268281 404.190937 812.068281 404.190937 
z
" style="fill: #ffffff; opacity: 0.8; stroke: #cccccc; stroke-linejoin: miter"/>
    </g>
    <g id="patch_25">
     <path d="M 813.868281 372.298594 
L 831.868281 372.298594 
L 831.868281 365.998594 
L 813.868281 365.998594 
z
" style="fill: #bfdbfe; opacity: 0.55; stroke: #bfdbfe; stroke-linejoin: miter"/>
    </g>
    <g id="text_69">
     <!-- History (24) -->
     <g transform="translate(839.068281 372.298594) scale(0.09 -0.09)">
      <defs>
       <path id="DejaVuSans-48" d="M 628 4666 
L 1259 4666 
L 1259 2753 
L 3553 2753 
L 3553 4666 
L 4184 4666 
L 4184 0 
L 3553 0 
L 3553 2222 
L 1259 2222 
L 1259 0 
L 628 0 
L 628 4666 
z
" transform="scale(0.015625)"/>
       <path id="DejaVuSans-79" d="M 2059 -325 
Q 1816 -950 1584 -1140 
Q 1353 -1331 966 -1331 
L 506 -1331 
L 506 -850 
L 844 -850 
Q 1081 -850 1212 -737 
Q 1344 -625 1503 -206 
L 1606 56 
L 191 3500 
L 800 3500 
L 1894 763 
L 2988 3500 
L 3597 3500 
L 2059 -325 
z
" transform="scale(0.015625)"/>
      </defs>
      <use xlink:href="#DejaVuSans-48"/>
      <use xlink:href="#DejaVuSans-69" x="75.195312"/>
      <use xlink:href="#DejaVuSans-73" x="102.978516"/>
      <use xlink:href="#DejaVuSans-74" x="155.078125"/>
      <use xlink:href="#DejaVuSans-6f" x="194.287109"/>
      <use xlink:href="#DejaVuSans-72" x="255.46875"/>
      <use xlink:href="#DejaVuSans-79" x="296.582031"/>
      <use xlink:href="#DejaVuSans-20" x="355.761719"/>
      <use xlink:href="#DejaVuSans-28" x="387.548828"/>
      <use xlink:href="#DejaVuSans-32" x="426.5625"/>
      <use xlink:href="#DejaVuSans-34" x="490.185547"/>
      <use xlink:href="#DejaVuSans-29" x="553.808594"/>
     </g>
    </g>
    <g id="patch_26">
     <path d="M 813.868281 385.508906 
L 831.868281 385.508906 
L 831.868281 379.208906 
L 813.868281 379.208906 
z
" style="fill: #fed7aa; opacity: 0.55; stroke: #fed7aa; stroke-linejoin: miter"/>
    </g>
    <g id="text_70">
     <!-- Future target (24) -->
     <g transform="translate(839.068281 385.508906) scale(0.09 -0.09)">
      <defs>
       <path id="DejaVuSans-46" d="M 628 4666 
L 3309 4666 
L 3309 4134 
L 1259 4134 
L 1259 2759 
L 3109 2759 
L 3109 2228 
L 1259 2228 
L 1259 0 
L 628 0 
L 628 4666 
z
" transform="scale(0.015625)"/>
       <path id="DejaVuSans-75" d="M 544 1381 
L 544 3500 
L 1119 3500 
L 1119 1403 
Q 1119 906 1312 657 
Q 1506 409 1894 409 
Q 2359 409 2629 706 
Q 2900 1003 2900 1516 
L 2900 3500 
L 3475 3500 
L 3475 0 
L 2900 0 
L 2900 538 
Q 2691 219 2414 64 
Q 2138 -91 1772 -91 
Q 1169 -91 856 284 
Q 544 659 544 1381 
z
M 1991 3584 
L 1991 3584 
z
" transform="scale(0.015625)"/>
      </defs>
      <use xlink:href="#DejaVuSans-46"/>
      <use xlink:href="#DejaVuSans-75" x="52.019531"/>
      <use xlink:href="#DejaVuSans-74" x="115.398438"/>
      <use xlink:href="#DejaVuSans-75" x="154.607422"/>
      <use xlink:href="#DejaVuSans-72" x="217.986328"/>
      <use xlink:href="#DejaVuSans-65" x="256.849609"/>
      <use xlink:href="#DejaVuSans-20" x="318.373047"/>
      <use xlink:href="#DejaVuSans-74" x="350.160156"/>
      <use xlink:href="#DejaVuSans-61" x="389.369141"/>
      <use xlink:href="#DejaVuSans-72" x="450.648438"/>
      <use xlink:href="#DejaVuSans-67" x="490.011719"/>
      <use xlink:href="#DejaVuSans-65" x="553.488281"/>
      <use xlink:href="#DejaVuSans-74" x="615.011719"/>
      <use xlink:href="#DejaVuSans-20" x="654.220703"/>
      <use xlink:href="#DejaVuSans-28" x="686.007812"/>
      <use xlink:href="#DejaVuSans-32" x="725.021484"/>
      <use xlink:href="#DejaVuSans-34" x="788.644531"/>
      <use xlink:href="#DejaVuSans-29" x="852.267578"/>
     </g>
    </g>
    <g id="line2d_128">
     <path d="M 813.868281 395.569219 
L 822.868281 395.569219 
L 831.868281 395.569219 
" style="fill: none; stroke: #2563eb; stroke-width: 2; stroke-linecap: square"/>
    </g>
    <g id="text_71">
     <!-- Price -->
     <g transform="translate(839.068281 398.719219) scale(0.09 -0.09)">
      <use xlink:href="#DejaVuSans-50"/>
      <use xlink:href="#DejaVuSans-72" x="58.552734"/>
      <use xlink:href="#DejaVuSans-69" x="99.666016"/>
      <use xlink:href="#DejaVuSans-63" x="127.449219"/>
      <use xlink:href="#DejaVuSans-65" x="182.429688"/>
     </g>
    </g>
    <g id="line2d_129">
     <path d="M 937.282188 369.148594 
L 946.282188 369.148594 
L 955.282188 369.148594 
" style="fill: none; stroke: #dc2626; stroke-width: 2; stroke-linecap: square"/>
    </g>
    <g id="text_72">
     <!-- Load -->
     <g transform="translate(962.482188 372.298594) scale(0.09 -0.09)">
      <use xlink:href="#DejaVuSans-4c"/>
      <use xlink:href="#DejaVuSans-6f" x="53.962891"/>
      <use xlink:href="#DejaVuSans-61" x="115.144531"/>
      <use xlink:href="#DejaVuSans-64" x="176.423828"/>
     </g>
    </g>
    <g id="line2d_130">
     <path d="M 937.282188 382.358906 
L 946.282188 382.358906 
L 955.282188 382.358906 
" style="fill: none; stroke: #f59e0b; stroke-width: 2; stroke-linecap: square"/>
    </g>
    <g id="text_73">
     <!-- Solar -->
     <g transform="translate(962.482188 385.508906) scale(0.09 -0.09)">
      <use xlink:href="#DejaVuSans-53"/>
      <use xlink:href="#DejaVuSans-6f" x="63.476562"/>
      <use xlink:href="#DejaVuSans-6c" x="124.658203"/>
      <use xlink:href="#DejaVuSans-61" x="152.441406"/>
      <use xlink:href="#DejaVuSans-72" x="213.720703"/>
     </g>
    </g>
   </g>
  </g>
  <g id="text_74">
   <!-- Processed Forecast Data Example | schema=citylearn_challenge_2023_phase_1 | buildings=3 | steps=720 -->
   <g transform="translate(126.226094 17.899062) scale(0.14 -0.14)">
    <defs>
     <path id="DejaVuSans-44" d="M 1259 4147 
L 1259 519 
L 2022 519 
Q 2988 519 3436 956 
Q 3884 1394 3884 2338 
Q 3884 3275 3436 3711 
Q 2988 4147 2022 4147 
L 1259 4147 
z
M 628 4666 
L 1925 4666 
Q 3281 4666 3915 4102 
Q 4550 3538 4550 2338 
Q 4550 1131 3912 565 
Q 3275 0 1925 0 
L 628 0 
L 628 4666 
z
" transform="scale(0.015625)"/>
     <path id="DejaVuSans-7c" d="M 1344 4891 
L 1344 -1509 
L 813 -1509 
L 813 4891 
L 1344 4891 
z
" transform="scale(0.015625)"/>
     <path id="DejaVuSans-68" d="M 3513 2113 
L 3513 0 
L 2938 0 
L 2938 2094 
Q 2938 2591 2744 2837 
Q 2550 3084 2163 3084 
Q 1697 3084 1428 2787 
Q 1159 2491 1159 1978 
L 1159 0 
L 581 0 
L 581 4863 
L 1159 4863 
L 1159 2956 
Q 1366 3272 1645 3428 
Q 1925 3584 2291 3584 
Q 2894 3584 3203 3211 
Q 3513 2838 3513 2113 
z
" transform="scale(0.015625)"/>
     <path id="DejaVuSans-3d" d="M 678 2906 
L 4684 2906 
L 4684 2381 
L 678 2381 
L 678 2906 
z
M 678 1631 
L 4684 1631 
L 4684 1100 
L 678 1100 
L 678 1631 
z
" transform="scale(0.015625)"/>
     <path id="DejaVuSans-5f" d="M 3263 -1063 
L 3263 -1509 
L -63 -1509 
L -63 -1063 
L 3263 -1063 
z
" transform="scale(0.015625)"/>
     <path id="DejaVuSans-37" d="M 525 4666 
L 3525 4666 
L 3525 4397 
L 1831 0 
L 1172 0 
L 2766 4134 
L 525 4134 
L 525 4666 
z
" transform="scale(0.015625)"/>
    </defs>
    <use xlink:href="#DejaVuSans-50"/>
    <use xlink:href="#DejaVuSans-72" x="58.552734"/>
    <use xlink:href="#DejaVuSans-6f" x="97.416016"/>
    <use xlink:href="#DejaVuSans-63" x="158.597656"/>
    <use xlink:href="#DejaVuSans-65" x="213.578125"/>
    <use xlink:href="#DejaVuSans-73" x="275.101562"/>
    <use xlink:href="#DejaVuSans-73" x="327.201172"/>
    <use xlink:href="#DejaVuSans-65" x="379.300781"/>
    <use xlink:href="#DejaVuSans-64" x="440.824219"/>
    <use xlink:href="#DejaVuSans-20" x="504.300781"/>
    <use xlink:href="#DejaVuSans-46" x="536.087891"/>
    <use xlink:href="#DejaVuSans-6f" x="589.982422"/>
    <use xlink:href="#DejaVuSans-72" x="651.164062"/>
    <use xlink:href="#DejaVuSans-65" x="690.027344"/>
    <use xlink:href="#DejaVuSans-63" x="751.550781"/>
    <use xlink:href="#DejaVuSans-61" x="806.53125"/>
    <use xlink:href="#DejaVuSans-73" x="867.810547"/>
    <use xlink:href="#DejaVuSans-74" x="919.910156"/>
    <use xlink:href="#DejaVuSans-20" x="959.119141"/>
    <use xlink:href="#DejaVuSans-44" x="990.90625"/>
    <use xlink:href="#DejaVuSans-61" x="1067.908203"/>
    <use xlink:href="#DejaVuSans-74" x="1129.1875"/>
    <use xlink:href="#DejaVuSans-61" x="1168.396484"/>
    <use xlink:href="#DejaVuSans-20" x="1229.675781"/>
    <use xlink:href="#DejaVuSans-45" x="1261.462891"/>
    <use xlink:href="#DejaVuSans-78" x="1324.646484"/>
    <use xlink:href="#DejaVuSans-61" x="1383.826172"/>
    <use xlink:href="#DejaVuSans-6d" x="1445.105469"/>
    <use xlink:href="#DejaVuSans-70" x="1542.517578"/>
    <use xlink:href="#DejaVuSans-6c" x="1605.994141"/>
    <use xlink:href="#DejaVuSans-65" x="1633.777344"/>
    <use xlink:href="#DejaVuSans-20" x="1695.300781"/>
    <use xlink:href="#DejaVuSans-7c" x="1727.087891"/>
    <use xlink:href="#DejaVuSans-20" x="1760.779297"/>
    <use xlink:href="#DejaVuSans-73" x="1792.566406"/>
    <use xlink:href="#DejaVuSans-63" x="1844.666016"/>
    <use xlink:href="#DejaVuSans-68" x="1899.646484"/>
    <use xlink:href="#DejaVuSans-65" x="1963.025391"/>
    <use xlink:href="#DejaVuSans-6d" x="2024.548828"/>
    <use xlink:href="#DejaVuSans-61" x="2121.960938"/>
    <use xlink:href="#DejaVuSans-3d" x="2183.240234"/>
    <use xlink:href="#DejaVuSans-63" x="2267.029297"/>
    <use xlink:href="#DejaVuSans-69" x="2322.009766"/>
    <use xlink:href="#DejaVuSans-74" x="2349.792969"/>
    <use xlink:href="#DejaVuSans-79" x="2389.001953"/>
    <use xlink:href="#DejaVuSans-6c" x="2448.181641"/>
    <use xlink:href="#DejaVuSans-65" x="2475.964844"/>
    <use xlink:href="#DejaVuSans-61" x="2537.488281"/>
    <use xlink:href="#DejaVuSans-72" x="2598.767578"/>
    <use xlink:href="#DejaVuSans-6e" x="2638.130859"/>
    <use xlink:href="#DejaVuSans-5f" x="2701.509766"/>
    <use xlink:href="#DejaVuSans-63" x="2751.509766"/>
    <use xlink:href="#DejaVuSans-68" x="2806.490234"/>
    <use xlink:href="#DejaVuSans-61" x="2869.869141"/>
    <use xlink:href="#DejaVuSans-6c" x="2931.148438"/>
    <use xlink:href="#DejaVuSans-6c" x="2958.931641"/>
    <use xlink:href="#DejaVuSans-65" x="2986.714844"/>
    <use xlink:href="#DejaVuSans-6e" x="3048.238281"/>
    <use xlink:href="#DejaVuSans-67" x="3111.617188"/>
    <use xlink:href="#DejaVuSans-65" x="3175.09375"/>
    <use xlink:href="#DejaVuSans-5f" x="3236.617188"/>
    <use xlink:href="#DejaVuSans-32" x="3286.617188"/>
    <use xlink:href="#DejaVuSans-30" x="3350.240234"/>
    <use xlink:href="#DejaVuSans-32" x="3413.863281"/>
    <use xlink:href="#DejaVuSans-33" x="3477.486328"/>
    <use xlink:href="#DejaVuSans-5f" x="3541.109375"/>
    <use xlink:href="#DejaVuSans-70" x="3591.109375"/>
    <use xlink:href="#DejaVuSans-68" x="3654.585938"/>
    <use xlink:href="#DejaVuSans-61" x="3717.964844"/>
    <use xlink:href="#DejaVuSans-73" x="3779.244141"/>
    <use xlink:href="#DejaVuSans-65" x="3831.34375"/>
    <use xlink:href="#DejaVuSans-5f" x="3892.867188"/>
    <use xlink:href="#DejaVuSans-31" x="3942.867188"/>
    <use xlink:href="#DejaVuSans-20" x="4006.490234"/>
    <use xlink:href="#DejaVuSans-7c" x="4038.277344"/>
    <use xlink:href="#DejaVuSans-20" x="4071.96875"/>
    <use xlink:href="#DejaVuSans-62" x="4103.755859"/>
    <use xlink:href="#DejaVuSans-75" x="4167.232422"/>
    <use xlink:href="#DejaVuSans-69" x="4230.611328"/>
    <use xlink:href="#DejaVuSans-6c" x="4258.394531"/>
    <use xlink:href="#DejaVuSans-64" x="4286.177734"/>
    <use xlink:href="#DejaVuSans-69" x="4349.654297"/>
    <use xlink:href="#DejaVuSans-6e" x="4377.4375"/>
    <use xlink:href="#DejaVuSans-67" x="4440.816406"/>
    <use xlink:href="#DejaVuSans-73" x="4504.292969"/>
    <use xlink:href="#DejaVuSans-3d" x="4556.392578"/>
    <use xlink:href="#DejaVuSans-33" x="4640.181641"/>
    <use xlink:href="#DejaVuSans-20" x="4703.804688"/>
    <use xlink:href="#DejaVuSans-7c" x="4735.591797"/>
    <use xlink:href="#DejaVuSans-20" x="4769.283203"/>
    <use xlink:href="#DejaVuSans-73" x="4801.070312"/>
    <use xlink:href="#DejaVuSans-74" x="4853.169922"/>
    <use xlink:href="#DejaVuSans-65" x="4892.378906"/>
    <use xlink:href="#DejaVuSans-70" x="4953.902344"/>
    <use xlink:href="#DejaVuSans-73" x="5017.378906"/>
    <use xlink:href="#DejaVuSans-3d" x="5069.478516"/>
    <use xlink:href="#DejaVuSans-37" x="5153.267578"/>
    <use xlink:href="#DejaVuSans-32" x="5216.890625"/>
    <use xlink:href="#DejaVuSans-30" x="5280.513672"/>
   </g>
  </g>
 </g>
 <defs>
  <clipPath id="p321bf5aa5f">
   <rect x="42.828125" y="70.8" width="458.48" height="229.96"/>
  </clipPath>
  <clipPath id="p3991e4cf6a">
   <rect x="535.038125" y="70.8" width="458.48" height="229.96"/>
  </clipPath>
  <clipPath id="p1c1d4d1a37">
   <rect x="42.828125" y="357.36" width="458.48" height="229.96"/>
  </clipPath>
  <clipPath id="p489c163272">
   <rect x="535.038125" y="357.36" width="458.48" height="229.96"/>
  </clipPath>
 </defs>
</svg>
